<?xml version="1.0" encoding="UTF-8" standalone="no"?>
<!-- Generator: Gravit.io -->
<svg xmlns="http://www.w3.org/2000/svg" xmlns:xlink="http://www.w3.org/1999/xlink" style="isolation:isolate" viewBox="0 0 256 256" width="256pt" height="256pt"><defs><clipPath id="_clipPath_NnOnps4xqq1gRWmzaPQoA6i6RGYcepPS"><rect width="256" height="256"/></clipPath></defs><g clip-path="url(#_clipPath_NnOnps4xqq1gRWmzaPQoA6i6RGYcepPS)"><path d=" M 128 0 C 57.301 0 0 57.312 0 128 C 0 198.698 57.301 256 128 256 C 198.688 256 256 198.698 256 128 C 256.005 115.935 254.307 103.931 250.955 92.341 C 249.649 89.17 246.077 87.592 242.853 88.762 C 239.63 89.931 237.901 93.434 238.933 96.704 L 238.912 96.704 C 241.739 106.762 243.2 117.269 243.2 128 C 243.284 158.57 231.135 187.903 209.461 209.461 C 187.904 231.136 158.57 243.285 128 243.2 C 97.43 243.284 68.097 231.135 46.539 209.461 C 24.863 187.904 12.714 158.57 12.8 128 C 12.716 97.43 24.865 68.097 46.539 46.538 C 68.096 24.863 97.43 12.713 128 12.8 C 155.477 12.8 181.472 22.357 202.219 39.893 C 199.517 46.751 201.971 54.565 208.109 58.647 C 214.247 62.728 222.402 61.969 227.681 56.825 C 232.96 51.68 233.93 43.548 230.008 37.306 C 226.087 31.065 218.339 28.409 211.413 30.933 C 188.225 10.941 158.617 -0.039 128 0 Z  M 112.64 62.72 L 67.84 179.008 L 95.893 179.008 L 103.221 159.296 L 145.557 159.296 L 137.888 137.514 L 110.016 137.514 L 128.149 87.477 L 160.405 178.997 L 188.469 178.997 L 143.68 62.72 L 112.64 62.72 Z " fill="rgb(255,255,255)"/></g></svg>