<?xml version="1.0" encoding="UTF-8" standalone="no"?>
<!-- Generator: Gravit.io -->
<svg xmlns="http://www.w3.org/2000/svg" xmlns:xlink="http://www.w3.org/1999/xlink" style="isolation:isolate" viewBox="0 0 512 512" width="512pt" height="512pt"><defs><clipPath id="_clipPath_sY6OqRHDGFfcfbLL7eHa8Khz1Oi40pA1"><rect width="512" height="512"/></clipPath></defs><g clip-path="url(#_clipPath_sY6OqRHDGFfcfbLL7eHa8Khz1Oi40pA1)"><path d=" M 255.997 34.306 L 141.955 231.823 C 185.227 218.482 231.779 216.505 276.903 227.148 L 315.445 236.245 L 279.184 390.003 L 240.587 380.906 C 210.938 373.912 180.032 380.842 156.129 399.738 C 144.173 409.195 134.753 421.067 128.297 434.387 L 92.622 417.127 C 101.647 398.487 114.843 381.858 131.51 368.664 C 164.851 342.273 208.322 332.581 249.709 342.346 L 267.784 265.714 C 203.035 250.45 134.793 265.65 82.631 306.938 C 30.468 348.223 0 411.16 0 477.679 L 512 477.694 L 255.997 34.306 Z " fill="rgb(255,255,255)"/></g></svg>