<?xml version="1.0" encoding="UTF-8" standalone="no"?>
<!-- Generator: Gravit.io -->
<svg xmlns="http://www.w3.org/2000/svg" xmlns:xlink="http://www.w3.org/1999/xlink" style="isolation:isolate" viewBox="0 0 256 256" width="256pt" height="256pt"><defs><clipPath id="_clipPath_DBwXIjDKDn4kiN1uPmbU7v3gBMV0NAu8"><rect width="256" height="256"/></clipPath></defs><g clip-path="url(#_clipPath_DBwXIjDKDn4kiN1uPmbU7v3gBMV0NAu8)"><path d=" M 133.11 56.116 C 130.135 50.385 126.334 45.123 121.827 40.499 C 120.285 47.033 119.7 53.757 120.09 60.459 C 124.195 58.384 128.581 56.921 133.11 56.116 Z  M 106.211 68.267 C 100.705 63.74 94.565 60.044 87.989 57.295 C 89.702 64.306 92.428 71.03 96.08 77.254 C 96.08 77.83 100.131 72.911 106.211 68.285 L 106.211 68.267 Z  M 141.211 47.439 C 144.176 40.064 148.178 33.149 153.097 26.904 C 148.973 19.63 143.567 13.163 137.142 7.813 C 132.107 14.086 128.096 21.115 125.256 28.641 C 131.53 34.016 136.901 40.363 141.165 47.439 L 141.211 47.439 Z  M 87.696 89.095 L 87.696 89.095 C 79.591 87.534 71.315 87.048 63.083 87.65 C 67.859 94.466 73.839 100.354 80.729 105.022 C 82.294 99.423 84.629 94.069 87.669 89.113 L 87.696 89.095 Z  M 44.596 120.336 C 52.715 114.982 61.887 111.431 71.495 109.923 C 64.196 103.986 57.856 96.961 52.697 89.095 C 43.363 90.941 34.505 94.674 26.666 100.066 C 31.157 107.999 37.266 114.899 44.596 120.318 L 44.596 120.336 Z  M 77.858 117.731 C 68.749 118.306 59.917 121.086 52.121 125.831 C 60.082 130.796 68.764 134.497 77.858 136.803 L 77.858 136.803 C 76.99 130.469 76.99 124.046 77.858 117.712 L 77.858 117.731 Z  M 112.282 32.399 C 104.814 27.405 96.474 23.86 87.696 21.948 C 85.872 29.732 85.279 37.753 85.941 45.72 C 94.028 48.364 101.649 52.264 108.524 57.277 C 108.657 48.853 109.921 40.486 112.282 32.399 L 112.282 32.399 Z  M 201.372 11.287 C 205.451 23.498 208.261 36.097 209.756 48.884 C 199.377 51.054 189.723 55.834 181.705 62.772 C 186.811 65.346 191.573 68.553 195.877 72.317 C 199.616 76.647 205.84 77.843 210.917 75.206 C 219.636 67.354 227.94 59.054 235.795 50.337 C 237.899 47.95 238.933 44.807 238.659 41.637 C 238.384 38.468 236.824 35.549 234.342 33.56 C 224.172 24.988 213.12 17.522 201.372 11.287 L 201.372 11.287 Z  M 21.747 91.984 C 29.658 86.605 38.477 82.702 47.778 80.464 C 43.678 71.952 41.319 62.708 40.838 53.272 C 32.429 65.062 25.982 78.135 21.747 91.984 Z  M 85.383 79.257 C 81.251 71.247 78.327 62.669 76.706 53.802 C 67.982 51.777 58.958 51.387 50.091 52.65 C 50.665 61.829 53.128 70.79 57.323 78.973 C 66.632 77.572 76.105 77.668 85.383 79.257 Z  M 37.656 125.539 C 30.255 119.454 23.987 112.109 19.142 103.842 C 16.356 118.63 16.161 133.789 18.566 148.643 C 23.374 139.779 29.858 131.932 37.656 125.539 Z  M 187.776 13.6 C 180.186 17.245 173.323 22.243 167.524 28.348 C 170.878 35.663 173.402 43.33 175.049 51.206 C 181.499 46.211 188.602 42.123 196.16 39.055 C 195.311 30.048 192.445 21.349 187.776 13.6 Z  M 158.847 39.32 C 155.794 44.14 153.274 49.278 151.332 54.644 L 151.332 54.644 C 155.418 54.94 159.478 55.52 163.483 56.381 C 162.674 50.519 161.116 44.785 158.847 39.32 Z  M 161.453 17.377 C 167.089 12.031 173.41 7.459 180.251 3.781 C 169.262 1.18 157.999 -0.088 146.706 0.005 C 152.347 5.138 157.304 10.976 161.453 17.377 Z  M 232.028 200.164 C 213.806 182.793 210.085 171.528 194.716 183.387 C 175.745 199.041 150.072 203.871 126.709 196.182 C 103.347 188.493 85.561 169.359 79.596 145.498 C 67.039 143.04 55.125 138.02 44.596 130.75 C 34.607 138.984 26.6 149.362 21.171 161.114 L 20.879 161.114 C 47.202 260.582 175.342 283.759 234.634 221.568 C 244.472 211.154 235.503 203.895 232.028 200.164 Z  M 39.394 172.397 C 41.261 165.846 44.086 159.607 47.778 153.882 C 54.024 156.576 60.666 158.237 67.444 158.801 C 76.706 183.387 109.1 216.073 149.019 216.073 C 170.129 216.168 190.57 208.676 206.62 194.962 C 212.535 199.819 217.962 205.242 222.821 211.154 C 223.69 212.316 223.69 212.608 223.69 212.608 C 170.971 258.598 81.625 251.942 39.394 172.397 Z  M 79.266 19.297 C 78.131 26.894 77.478 34.556 77.31 42.237 C 69.185 40.901 60.922 40.615 52.724 41.386 C 60.772 33.113 69.669 25.709 79.266 19.297 L 79.266 19.297 Z  M 93.804 11.653 C 101.687 13.75 109.219 16.994 116.159 21.281 C 119.396 14.444 123.23 7.906 127.615 1.742 C 115.888 3.219 104.473 6.565 93.804 11.653 Z " fill-rule="evenodd" fill="rgb(255,255,255)"/></g></svg>