<?xml version="1.0" encoding="UTF-8" standalone="no"?>
<!-- Generator: Gravit.io -->
<svg xmlns="http://www.w3.org/2000/svg" xmlns:xlink="http://www.w3.org/1999/xlink" style="isolation:isolate" viewBox="0 0 256 256" width="256pt" height="256pt"><defs><clipPath id="_clipPath_dsfeLscqMsllOjODa5D0r4kJ00KorWkL"><rect width="256" height="256"/></clipPath></defs><g clip-path="url(#_clipPath_dsfeLscqMsllOjODa5D0r4kJ00KorWkL)"><g><path d="M 88.73 177.46 L 167.27 177.46 C 188.944 177.46 206.54 195.056 206.54 216.73 L 206.54 216.73 C 206.54 238.404 188.944 256 167.27 256 L 88.73 256 C 67.056 256 49.46 238.404 49.46 216.73 L 49.46 216.73 C 49.46 195.056 67.056 177.46 88.73 177.46 Z" style="stroke:none;fill:#FFFFFF;stroke-miterlimit:10;"/><path d=" M 47.927 80.073 C 47.927 35.879 83.807 0 128 0 C 172.193 0 208.073 35.879 208.073 80.073 C 208.073 124.266 172.193 160.146 128 160.146 C 83.807 160.146 47.927 124.266 47.927 80.073 Z  M 92.815 80.073 C 92.815 60.653 108.581 44.887 128 44.887 C 147.419 44.887 163.185 60.653 163.185 80.073 C 163.185 99.492 147.419 115.258 128 115.258 C 108.581 115.258 92.815 99.492 92.815 80.073 Z " fill-rule="evenodd" fill="rgb(255,255,255)"/></g></g></svg>