<?xml version="1.0" encoding="UTF-8" standalone="no"?>
<!-- Generator: Gravit.io -->
<svg xmlns="http://www.w3.org/2000/svg" xmlns:xlink="http://www.w3.org/1999/xlink" style="isolation:isolate" viewBox="0 0 256 256" width="256pt" height="256pt"><defs><clipPath id="_clipPath_q1cqwF7iC6HplC0LbVxPhatJ7lam4C1R"><rect width="256" height="256"/></clipPath></defs><g clip-path="url(#_clipPath_q1cqwF7iC6HplC0LbVxPhatJ7lam4C1R)"><path d=" M 253.461 105.448 C 248.222 101.995 241.786 99.935 234.871 99.935 C 234.076 99.935 233.29 99.961 232.512 100.012 L 232.615 100.003 C 228.803 100.012 225.076 100.354 221.452 100.986 L 221.845 100.926 C 219.836 89.328 213.084 79.601 203.708 73.652 L 203.545 73.558 L 199.878 71.438 L 197.468 74.926 C 194.596 79.302 192.348 84.396 191.006 89.841 L 190.938 90.174 C 190.177 92.943 189.741 96.123 189.741 99.405 C 189.741 106.508 191.793 113.123 195.331 118.705 L 195.246 118.56 C 189.801 121.115 183.442 122.731 176.749 123.038 L 176.638 123.038 L 8.009 123.038 C 3.598 123.047 0.026 126.611 0.009 131.013 L 0.009 131.013 C 0 131.492 0 132.064 0 132.637 C 0 147.603 2.709 161.937 7.667 175.177 L 7.393 174.339 C 12.163 188.297 21.172 199.767 32.864 207.511 L 33.104 207.657 C 48.01 215.375 65.652 219.896 84.345 219.896 C 86.114 219.896 87.866 219.853 89.618 219.777 L 89.371 219.785 C 89.524 219.785 89.704 219.785 89.883 219.785 C 100.756 219.785 111.38 218.751 121.679 216.776 L 120.628 216.947 C 135.97 214.076 149.646 208.922 162.04 201.793 L 161.407 202.126 C 172.151 195.844 181.331 188.271 189.143 179.459 L 189.246 179.339 C 200.571 166.006 209.785 150.441 216.127 133.483 L 216.477 132.415 L 218.836 132.415 C 219.306 132.432 219.853 132.449 220.401 132.449 C 230.88 132.449 240.401 128.338 247.436 121.637 L 247.419 121.654 C 250.641 118.594 253.196 114.876 254.88 110.705 L 254.957 110.499 L 256 107.431 L 253.461 105.448 Z  M 23.633 118.115 L 46.249 118.115 C 47.335 118.107 48.215 117.226 48.215 116.141 C 48.215 116.141 48.215 116.141 48.215 116.141 L 48.215 116.141 L 48.215 96.012 C 48.215 96.012 48.215 96.003 48.215 96.003 C 48.215 94.918 47.335 94.037 46.249 94.029 L 23.633 94.029 C 22.548 94.037 21.667 94.918 21.667 96.003 L 21.667 96.003 L 21.667 116.141 C 21.667 116.141 21.667 116.141 21.667 116.149 C 21.667 117.235 22.548 118.115 23.633 118.115 C 23.633 118.115 23.633 118.115 23.642 118.115 L 23.642 118.115 L 23.633 118.115 Z  M 54.78 118.115 L 77.379 118.115 C 78.464 118.115 79.353 117.235 79.353 116.141 C 79.353 116.141 79.353 116.141 79.353 116.141 L 79.353 116.141 L 79.353 96.012 C 79.353 96.012 79.353 96.003 79.353 96.003 C 79.353 94.918 78.473 94.037 77.387 94.029 L 54.771 94.029 C 54.771 94.029 54.771 94.029 54.771 94.029 C 53.677 94.029 52.788 94.918 52.788 96.012 C 52.788 96.012 52.788 96.012 52.788 96.012 L 52.788 96.012 L 52.788 116.141 C 52.797 117.235 53.677 118.115 54.771 118.115 L 54.771 118.115 L 54.78 118.115 Z  M 86.387 118.115 L 109.004 118.115 C 110.089 118.107 110.97 117.226 110.97 116.141 C 110.97 116.141 110.97 116.141 110.97 116.141 L 110.97 116.141 L 110.97 96.012 C 110.97 96.012 110.97 96.003 110.97 96.003 C 110.97 94.918 110.089 94.037 109.004 94.029 L 86.387 94.029 C 85.302 94.037 84.422 94.918 84.422 96.003 L 84.422 96.003 L 84.422 116.141 C 84.422 117.226 85.302 118.115 86.396 118.115 L 86.396 118.115 L 86.387 118.115 Z  M 117.636 118.115 L 140.227 118.115 C 140.227 118.115 140.227 118.115 140.227 118.115 C 141.321 118.115 142.201 117.235 142.21 116.141 L 142.21 96.012 C 142.21 96.012 142.21 96.012 142.21 96.012 C 142.21 94.918 141.321 94.029 140.227 94.029 C 140.227 94.029 140.227 94.029 140.227 94.029 L 117.636 94.029 C 116.551 94.029 115.662 94.909 115.662 96.003 L 115.662 96.003 L 115.662 116.141 C 115.662 116.141 115.662 116.141 115.662 116.149 C 115.662 117.235 116.542 118.115 117.628 118.115 C 117.628 118.115 117.628 118.115 117.636 118.115 L 117.636 118.115 Z  M 54.78 89.157 L 77.379 89.157 C 78.473 89.148 79.353 88.268 79.353 87.174 C 79.353 87.174 79.353 87.174 79.353 87.174 L 79.353 87.174 L 79.353 67.045 C 79.353 67.045 79.353 67.045 79.353 67.045 C 79.353 65.959 78.473 65.071 77.379 65.071 L 54.78 65.071 C 53.686 65.071 52.805 65.951 52.797 67.045 L 52.797 87.174 C 52.805 88.268 53.686 89.148 54.78 89.157 L 54.78 89.157 Z  M 86.387 89.157 L 109.004 89.157 C 110.089 89.148 110.97 88.259 110.97 87.174 L 110.97 87.174 L 110.97 67.045 C 110.97 67.045 110.97 67.045 110.97 67.045 C 110.97 65.959 110.089 65.071 108.995 65.071 L 86.405 65.071 C 85.319 65.071 84.43 65.951 84.43 67.045 C 84.43 67.045 84.43 67.045 84.43 67.045 L 84.43 67.045 L 84.43 87.174 C 84.439 88.268 85.311 89.148 86.405 89.157 L 86.405 89.157 L 86.387 89.157 Z  M 117.636 89.157 L 140.227 89.157 C 141.321 89.148 142.201 88.268 142.21 87.174 L 142.21 67.045 C 142.201 65.951 141.321 65.071 140.227 65.071 L 117.636 65.071 C 116.551 65.071 115.662 65.951 115.662 67.045 C 115.662 67.045 115.662 67.045 115.662 67.045 L 115.662 67.045 L 115.662 87.174 C 115.662 88.268 116.542 89.148 117.636 89.157 L 117.636 89.157 Z  M 117.636 60.199 L 140.227 60.199 C 140.227 60.199 140.227 60.199 140.227 60.199 C 141.321 60.199 142.21 59.31 142.21 58.216 C 142.21 58.216 142.21 58.216 142.21 58.216 L 142.21 58.216 L 142.21 38.078 C 142.201 36.984 141.321 36.104 140.227 36.104 C 140.227 36.104 140.227 36.104 140.227 36.104 L 117.636 36.104 C 116.551 36.104 115.662 36.984 115.662 38.078 L 115.662 38.078 L 115.662 58.216 C 115.662 58.216 115.662 58.216 115.662 58.224 C 115.662 59.31 116.542 60.19 117.628 60.19 C 117.628 60.19 117.628 60.19 117.636 60.19 L 117.636 60.19 L 117.636 60.199 Z  M 149.15 118.115 L 171.749 118.115 C 171.749 118.115 171.749 118.115 171.749 118.115 C 172.843 118.115 173.724 117.235 173.732 116.141 L 173.732 96.012 C 173.732 96.012 173.732 96.012 173.732 96.012 C 173.732 94.918 172.843 94.029 171.749 94.029 C 171.749 94.029 171.749 94.029 171.749 94.029 L 149.15 94.029 C 149.15 94.029 149.15 94.029 149.15 94.029 C 148.056 94.029 147.176 94.909 147.176 96.003 L 147.176 116.141 C 147.176 117.226 148.056 118.115 149.15 118.115 L 149.15 118.115 Z " fill="rgb(255,255,255)"/></g></svg>