<?xml version="1.0" encoding="UTF-8" standalone="no"?>
<!-- Generator: Gravit.io -->
<svg xmlns="http://www.w3.org/2000/svg" xmlns:xlink="http://www.w3.org/1999/xlink" style="isolation:isolate" viewBox="0 0 256 268.5" width="256pt" height="268.5pt"><defs><clipPath id="_clipPath_8Pu754UtdQOvlupjN7cvbGDIxJPQWS0F"><rect width="256" height="268.5"/></clipPath></defs><g clip-path="url(#_clipPath_8Pu754UtdQOvlupjN7cvbGDIxJPQWS0F)"><path d=" M 121.309 103.764 C 123.402 100.678 125.694 100.285 127.553 100.285 C 129.412 100.285 132.51 100.678 134.604 103.764 C 151.106 126.43 178.345 171.582 198.439 204.889 C 211.542 226.61 221.607 243.292 223.672 245.415 C 231.423 253.385 242.053 248.418 248.231 239.378 C 254.312 230.478 256 224.229 256 217.562 C 256 213.021 167.895 49.162 159.022 35.523 C 150.489 22.404 147.71 19.09 133.105 19.09 L 122.177 19.09 C 107.616 19.09 105.511 22.404 96.978 35.523 C 88.105 49.162 0 213.021 0 217.562 C 0 224.229 1.688 230.478 7.77 239.378 C 13.947 248.418 24.577 253.385 32.329 245.415 C 34.394 243.292 44.458 226.61 57.562 204.889 C 77.655 171.582 104.807 126.43 121.309 103.764 Z " fill="rgb(255,255,255)"/></g></svg>