<?xml version="1.0" encoding="UTF-8" standalone="no"?>
<!-- Generator: Gravit.io -->
<svg xmlns="http://www.w3.org/2000/svg" xmlns:xlink="http://www.w3.org/1999/xlink" style="isolation:isolate" viewBox="0 0 256 256" width="256pt" height="256pt"><defs><clipPath id="_clipPath_jpQ3NSd3WViQF0KrNbrx2ZRfV9x6Jtqe"><rect width="256" height="256"/></clipPath></defs><g clip-path="url(#_clipPath_jpQ3NSd3WViQF0KrNbrx2ZRfV9x6Jtqe)"><path d=" M 128 0 C 198.694 0 255.999 58.752 255.999 131.238 C 255.999 189.209 219.366 238.386 168.537 255.756 C 162.047 257.049 159.743 252.953 159.743 249.458 C 159.743 245.132 159.897 231.001 159.897 213.439 C 159.897 201.202 155.801 193.215 151.206 189.145 C 179.711 185.894 209.663 174.796 209.663 124.39 C 209.663 110.054 204.697 98.355 196.479 89.164 C 197.81 85.849 202.201 72.499 195.225 54.425 C 195.225 54.425 184.499 50.905 160.063 67.878 C 149.836 64.973 138.879 63.513 128 63.462 C 117.12 63.513 106.176 64.973 95.961 67.878 C 71.501 50.905 60.749 54.425 60.749 54.425 C 53.798 72.499 58.189 85.849 59.507 89.164 C 51.328 98.355 46.323 110.054 46.323 124.39 C 46.323 174.668 76.211 185.932 104.64 189.247 C 100.979 192.524 97.664 198.31 96.512 206.796 C 89.216 210.15 70.681 215.948 59.264 195.89 C 59.264 195.89 52.493 183.283 39.641 182.361 C 39.641 182.361 27.161 182.195 38.771 190.335 C 38.771 190.335 47.155 194.367 52.979 209.535 C 52.979 209.535 60.493 232.959 96.102 225.023 C 96.166 235.993 96.281 246.335 96.281 249.458 C 96.281 252.927 93.926 256.985 87.539 255.769 C 36.672 238.425 0 189.222 0 131.238 C 0 58.752 57.318 0 128 0 Z " fill-rule="evenodd" fill="rgb(255,255,255)"/></g></svg>