<?xml version="1.0" encoding="UTF-8" standalone="no"?>
<!-- Generator: Gravit.io -->
<svg xmlns="http://www.w3.org/2000/svg" xmlns:xlink="http://www.w3.org/1999/xlink" style="isolation:isolate" viewBox="0 0 256 256" width="256pt" height="256pt"><defs><clipPath id="_clipPath_X4f3RtU21D2Eu6AnyYuh7CPzkO2Qif2O"><rect width="256" height="256"/></clipPath></defs><g clip-path="url(#_clipPath_X4f3RtU21D2Eu6AnyYuh7CPzkO2Qif2O)"><g><rect x="-22.151" y="96.358" width="209.313" height="10.849" transform="matrix(0.5,-0.866,0.866,0.5,-46.893,122.341)" fill="rgb(255,255,255)"/><rect x="23.315" y="175.221" width="209.322" height="10.849" transform="matrix(1,0,0,1,0,0)" fill="rgb(255,255,255)"/><rect x="77.095" y="146.395" width="10.849" height="120.894" transform="matrix(0.5,-0.866,0.866,0.5,-137.87,174.881)" fill="rgb(255,255,255)"/><rect x="168.056" y="-11.154" width="10.849" height="120.894" transform="matrix(0.5,-0.866,0.866,0.5,44.05,174.883)" fill="rgb(255,255,255)"/><rect x="22.101" y="43.837" width="120.894" height="10.849" transform="matrix(0.866,-0.5,0.5,0.866,-13.572,47.875)" fill="rgb(255,255,255)"/><rect x="168.125" y="-2.874" width="10.849" height="209.313" transform="matrix(0.866,-0.5,0.5,0.866,-27.64,100.414)" fill="rgb(255,255,255)"/><rect x="31.623" y="67.59" width="10.849" height="120.903" transform="matrix(1,0,0,1,0,0)" fill="rgb(255,255,255)"/><rect x="213.563" y="67.59" width="10.849" height="120.903" transform="matrix(1,0,0,1,0,0)" fill="rgb(255,255,255)"/><rect x="120.902" y="202.043" width="105.146" height="9.478" transform="matrix(0.866,-0.5,0.5,0.866,-80.152,114.445)" fill="rgb(255,255,255)"/><path d=" M 238.789 192.02 C 234.177 200.035 225.189 204.479 216.021 203.28 C 206.852 202.081 199.31 195.474 196.915 186.543 C 194.519 177.613 197.742 168.118 205.079 162.491 C 212.417 156.865 222.422 156.214 230.426 160.844 C 241.332 167.153 245.073 181.1 238.789 192.02 Z " fill="rgb(255,255,255)"/><path d=" M 56.722 86.911 C 52.11 94.926 43.122 99.37 33.954 98.171 C 24.785 96.972 17.243 90.365 14.848 81.434 C 12.452 72.504 15.675 63.009 23.012 57.382 C 30.349 51.755 40.355 51.105 48.359 55.735 C 59.265 62.044 63.006 75.991 56.722 86.911 Z " fill="rgb(255,255,255)"/><path d=" M 17.237 192.02 C 12.607 184.017 13.257 174.011 18.884 166.674 C 24.511 159.337 34.005 156.114 42.936 158.51 C 51.867 160.905 58.474 168.447 59.673 177.616 C 60.872 186.784 56.428 195.771 48.413 200.384 C 37.493 206.668 23.546 202.927 17.237 192.02 Z " fill="rgb(255,255,255)"/><path d=" M 199.304 86.911 C 194.674 78.908 195.325 68.902 200.951 61.565 C 206.578 54.228 216.073 51.005 225.003 53.401 C 233.934 55.796 240.541 63.338 241.74 72.507 C 242.939 81.675 238.495 90.662 230.481 95.274 C 219.56 101.559 205.613 97.818 199.304 86.911 Z " fill="rgb(255,255,255)"/><path d=" M 128.013 256 C 115.393 256 105.163 245.77 105.163 233.15 C 105.163 220.531 115.393 210.3 128.013 210.3 C 140.633 210.3 150.863 220.531 150.863 233.15 C 150.88 239.215 148.478 245.037 144.189 249.326 C 139.9 253.615 134.078 256.017 128.013 256" fill="rgb(255,255,255)"/><path d=" M 128 45.7 C 115.38 45.7 105.15 35.469 105.15 22.85 C 105.15 10.23 115.38 0 128 0 C 140.62 0 150.85 10.23 150.85 22.85 C 150.867 28.915 148.465 34.737 144.176 39.026 C 139.887 43.315 134.065 45.717 128 45.7" fill="rgb(255,255,255)"/></g></g></svg>