<?xml version="1.0" encoding="UTF-8" standalone="no"?>
<!-- Generator: Gravit.io -->
<svg xmlns="http://www.w3.org/2000/svg" xmlns:xlink="http://www.w3.org/1999/xlink" style="isolation:isolate" viewBox="0 0 256 256" width="256pt" height="256pt"><defs><clipPath id="_clipPath_5FxC06g1b80aCAMEhFL6RACJakRMeWdS"><rect width="256" height="256"/></clipPath></defs><g clip-path="url(#_clipPath_5FxC06g1b80aCAMEhFL6RACJakRMeWdS)"><path d=" M 27.686 133.857 L 27.686 133.675 L 27.686 105.828 L 33.794 105.828 L 33.794 135.999 C 34.077 138.431 33.869 140.895 33.179 143.244 C 32.49 145.593 31.335 147.779 29.783 149.672 C 26.898 152.161 23.201 153.507 19.392 153.455 L 18.753 148.898 C 21.211 148.899 23.582 147.99 25.408 146.345 C 27.048 144.431 27.686 141.833 27.686 133.857 Z  M 73.233 130.262 C 73.233 133.681 73.233 136.734 73.506 139.378 L 68.083 139.378 L 67.718 133.954 C 66.584 135.873 64.961 137.457 63.016 138.546 C 61.071 139.635 58.872 140.189 56.643 140.152 C 51.356 140.152 45.066 137.281 45.066 125.568 L 45.066 106.107 L 51.174 106.107 L 51.174 124.337 C 51.174 130.673 53.133 134.911 58.648 134.911 C 59.783 134.923 60.908 134.709 61.959 134.28 C 63.01 133.852 63.964 133.218 64.766 132.415 C 65.569 131.613 66.203 130.659 66.631 129.608 C 67.06 128.557 67.274 127.432 67.262 126.297 L 67.262 105.879 L 73.369 105.879 L 73.369 130.08 L 73.233 130.262 Z  M 84.809 116.95 C 84.809 112.711 84.809 109.248 84.536 106.103 L 90.005 106.103 L 90.278 111.8 C 91.497 109.742 93.251 108.053 95.354 106.913 C 97.457 105.773 99.83 105.225 102.22 105.328 C 110.332 105.328 116.439 112.119 116.439 122.237 C 116.439 134.178 109.102 140.103 101.171 140.103 C 99.142 140.193 97.123 139.759 95.31 138.84 C 93.498 137.922 91.953 136.552 90.825 134.862 L 90.825 153.092 L 84.809 153.092 L 84.809 117.087 L 84.809 116.95 Z  M 90.825 125.837 C 90.842 126.664 90.933 127.488 91.099 128.299 C 91.616 130.322 92.793 132.116 94.444 133.395 C 96.095 134.675 98.125 135.367 100.214 135.363 C 106.64 135.363 110.423 130.122 110.423 122.51 C 110.423 115.856 106.868 110.159 100.442 110.159 C 97.899 110.367 95.519 111.496 93.749 113.334 C 91.978 115.171 90.939 117.591 90.825 120.14 L 90.825 125.837 Z  M 127.321 106.072 L 134.659 125.716 C 135.433 127.904 136.254 130.547 136.801 132.507 C 137.439 130.501 138.122 127.949 138.943 125.579 L 145.597 106.072 L 152.023 106.072 L 142.908 129.772 C 138.35 141.166 135.57 147.046 131.377 150.601 C 129.265 152.53 126.69 153.88 123.902 154.52 L 122.398 149.416 C 124.348 148.775 126.157 147.77 127.731 146.453 C 129.954 144.641 131.719 142.33 132.881 139.708 C 133.13 139.254 133.299 138.761 133.382 138.249 C 133.331 137.699 133.192 137.161 132.972 136.654 L 120.575 105.981 L 127.229 105.981 L 127.321 106.072 Z  M 168.236 96.511 L 168.236 106.082 L 176.987 106.082 L 176.987 110.639 L 168.236 110.639 L 168.236 128.597 C 168.236 132.698 169.421 135.068 172.794 135.068 C 173.992 135.088 175.187 134.95 176.349 134.658 L 176.622 139.216 C 174.88 139.819 173.042 140.098 171.199 140.036 C 169.978 140.113 168.756 139.924 167.615 139.484 C 166.474 139.043 165.442 138.361 164.59 137.484 C 162.734 135.001 161.887 131.907 162.22 128.824 L 162.22 110.594 L 157.024 110.594 L 157.024 106.036 L 162.311 106.036 L 162.311 97.924 L 168.236 96.511 Z  M 188.237 123.791 C 188.114 125.337 188.327 126.891 188.863 128.346 C 189.398 129.801 190.244 131.123 191.34 132.219 C 192.437 133.316 193.758 134.161 195.213 134.697 C 196.668 135.232 198.223 135.446 199.768 135.322 C 202.895 135.392 206.001 134.802 208.883 133.59 L 209.932 138.148 C 206.394 139.605 202.59 140.304 198.765 140.199 C 196.536 140.351 194.3 140.02 192.21 139.227 C 190.121 138.434 188.227 137.199 186.66 135.606 C 185.093 134.013 183.889 132.099 183.13 129.997 C 182.372 127.895 182.078 125.653 182.267 123.427 C 182.267 113.4 188.237 105.469 197.991 105.469 C 208.929 105.469 211.664 115.04 211.664 121.148 C 211.722 122.089 211.722 123.032 211.664 123.973 L 188.101 123.973 L 188.237 123.791 Z  M 206.103 119.233 C 206.279 118.015 206.192 116.773 205.847 115.591 C 205.502 114.409 204.908 113.315 204.105 112.382 C 203.302 111.449 202.308 110.699 201.19 110.183 C 200.073 109.667 198.857 109.396 197.626 109.389 C 195.122 109.57 192.776 110.68 191.047 112.501 C 189.319 114.322 188.333 116.723 188.283 119.233 L 206.103 119.233 Z  M 220.93 116.436 C 220.93 112.517 220.93 109.144 220.657 106.045 L 226.126 106.045 L 226.126 112.562 L 226.399 112.562 C 226.973 110.551 228.159 108.768 229.793 107.461 C 231.426 106.154 233.426 105.388 235.515 105.27 C 236.089 105.195 236.672 105.195 237.247 105.27 L 237.247 110.967 C 236.55 110.886 235.847 110.886 235.15 110.967 C 233.081 111.047 231.112 111.878 229.611 113.304 C 228.109 114.729 227.179 116.653 226.992 118.715 C 226.821 119.648 226.73 120.593 226.718 121.541 L 226.718 139.27 L 220.702 139.27 L 220.702 116.482 L 220.93 116.436 Z  M 218.254 14.516 C 218.441 17.578 217.712 20.627 216.161 23.273 C 214.61 25.919 212.306 28.044 209.542 29.376 C 206.779 30.709 203.682 31.188 200.645 30.754 C 197.609 30.32 194.77 28.992 192.491 26.938 C 190.212 24.885 188.595 22.2 187.848 19.225 C 187.1 16.25 187.255 13.12 188.292 10.233 C 189.33 7.346 191.203 4.834 193.674 3.015 C 196.144 1.197 199.1 0.155 202.165 0.023 C 204.174 -0.088 206.186 0.2 208.084 0.87 C 209.981 1.539 211.728 2.577 213.223 3.924 C 214.718 5.271 215.933 6.9 216.796 8.718 C 217.659 10.536 218.155 12.506 218.254 14.516 Z  M 128.132 193.021 C 87.114 193.021 51.063 178.3 32.422 156.559 C 39.655 176.117 52.705 192.99 69.817 204.906 C 86.929 216.822 107.281 223.21 128.132 223.21 C 148.985 223.21 169.336 216.822 186.448 204.906 C 203.56 192.99 216.61 176.117 223.843 156.559 C 205.248 178.3 169.334 193.021 128.132 193.021 Z  M 128.132 51.652 C 169.151 51.652 205.203 66.373 223.843 88.113 C 216.61 68.556 203.56 51.683 186.448 39.767 C 169.336 27.851 148.985 21.462 128.132 21.462 C 107.281 21.462 86.929 27.851 69.817 39.767 C 52.705 51.683 39.655 68.556 32.422 88.113 C 51.063 66.328 86.932 51.652 128.132 51.652 Z  M 71.665 235.327 C 71.905 239.184 70.992 243.025 69.042 246.361 C 67.092 249.697 64.193 252.376 60.714 254.059 C 57.236 255.741 53.335 256.35 49.509 255.807 C 45.683 255.265 42.105 253.595 39.232 251.012 C 36.358 248.429 34.318 245.049 33.372 241.302 C 32.426 237.556 32.617 233.612 33.921 229.975 C 35.224 226.337 37.581 223.17 40.691 220.876 C 43.801 218.583 47.523 217.267 51.383 217.097 C 53.912 216.961 56.443 217.326 58.831 218.169 C 61.219 219.012 63.418 220.317 65.301 222.01 C 67.184 223.703 68.716 225.75 69.808 228.035 C 70.9 230.32 71.531 232.798 71.665 235.327 Z  M 37.083 46.697 C 34.873 46.758 32.694 46.165 30.821 44.991 C 28.947 43.817 27.462 42.115 26.553 40.099 C 25.644 38.084 25.352 35.844 25.712 33.663 C 26.072 31.481 27.07 29.455 28.578 27.839 C 30.087 26.222 32.04 25.089 34.192 24.579 C 36.344 24.07 38.598 24.209 40.671 24.977 C 42.744 25.746 44.544 27.11 45.844 28.899 C 47.144 30.688 47.886 32.821 47.976 35.03 C 48.063 38.017 46.967 40.918 44.928 43.102 C 42.888 45.287 40.07 46.579 37.083 46.697 Z " fill-rule="evenodd" fill="rgb(255,255,255)"/></g></svg>