<?xml version="1.0" encoding="UTF-8" standalone="no"?>
<!-- Generator: Gravit.io -->
<svg xmlns="http://www.w3.org/2000/svg" xmlns:xlink="http://www.w3.org/1999/xlink" style="isolation:isolate" viewBox="0 0 256 256" width="256pt" height="256pt"><defs><clipPath id="_clipPath_lvGtfTZwysVCwPtLNKzf8mt9OOXpQhYp"><rect width="256" height="256"/></clipPath></defs><g clip-path="url(#_clipPath_lvGtfTZwysVCwPtLNKzf8mt9OOXpQhYp)"><path d=" M 119.6 0.069 C 119.049 0.119 117.297 0.294 115.721 0.419 C 79.366 3.697 45.313 23.313 23.745 53.463 C 11.735 70.227 4.053 89.243 1.151 109.384 C 0.125 116.416 0 118.492 0 128.025 C 0 137.558 0.125 139.635 1.151 146.665 C 8.107 194.731 42.31 235.114 88.699 250.076 C 97.005 252.753 105.763 254.58 115.721 255.681 C 119.6 256.106 136.363 256.106 140.242 255.681 C 157.431 253.779 171.993 249.526 186.354 242.195 C 188.557 241.069 188.981 240.769 188.682 240.518 C 188.481 240.368 179.099 227.783 167.839 212.57 L 147.372 184.922 L 121.726 146.966 C 107.614 126.099 96.005 109.035 95.905 109.035 C 95.804 109.009 95.704 125.874 95.654 146.465 C 95.579 182.52 95.554 183.972 95.104 184.822 C 94.453 186.048 93.953 186.549 92.902 187.099 C 92.101 187.5 91.401 187.575 87.623 187.575 L 83.294 187.575 L 82.143 186.849 C 81.393 186.374 80.842 185.748 80.467 185.022 L 79.941 183.896 L 79.991 133.73 L 80.066 83.538 L 80.842 82.562 C 81.242 82.037 82.093 81.361 82.694 81.036 C 83.719 80.536 84.12 80.486 88.448 80.486 C 93.553 80.486 94.403 80.686 95.729 82.137 C 96.105 82.537 109.991 103.455 126.605 128.651 C 143.218 153.846 165.937 188.25 177.097 205.139 L 197.364 235.839 L 198.39 235.164 C 207.472 229.259 217.081 220.852 224.686 212.095 C 240.874 193.504 251.308 170.836 254.812 146.665 C 255.838 139.635 255.962 137.558 255.962 128.025 C 255.962 118.492 255.838 116.416 254.812 109.384 C 247.856 61.32 213.652 20.936 167.264 5.974 C 159.082 3.322 150.375 1.495 140.617 0.394 C 138.214 0.144 121.676 -0.131 119.6 0.069 Z  M 171.993 77.483 C 173.194 78.084 174.17 79.235 174.519 80.436 C 174.72 81.086 174.77 94.998 174.72 126.348 L 174.645 171.336 L 166.714 159.176 L 158.756 147.016 L 158.756 114.314 C 158.756 93.171 158.857 81.286 159.007 80.711 C 159.407 79.31 160.283 78.209 161.483 77.558 C 162.509 77.033 162.885 76.983 166.814 76.983 C 170.517 76.983 171.167 77.033 171.993 77.483 Z " fill="rgb(255,255,255)"/></g></svg>
