<?xml version="1.0" encoding="UTF-8" standalone="no"?>
<!-- Generator: Gravit.io -->
<svg xmlns="http://www.w3.org/2000/svg" xmlns:xlink="http://www.w3.org/1999/xlink" style="isolation:isolate" viewBox="0 0 256 256" width="256pt" height="256pt"><defs><clipPath id="_clipPath_MShQpBww2cobP4FUJtjC2F8qLNfVPwIn"><rect width="256" height="256"/></clipPath></defs><g clip-path="url(#_clipPath_MShQpBww2cobP4FUJtjC2F8qLNfVPwIn)"><path d=" M 110.153 52.014 L 67.703 30.418 L 21.111 53.851 L 64.713 75.913 L 110.153 52.014 L 110.153 52.014 Z  M 129.618 61.906 L 174.126 84.544 L 127.945 107.913 L 84.279 85.815 L 129.618 61.906 L 129.618 61.906 Z  M 189.056 30.747 L 234.779 53.851 L 193.893 74.542 L 149.285 51.877 L 189.056 30.747 L 189.056 30.747 Z  M 169.381 20.791 L 128.21 0 L 87.497 20.471 L 129.911 42.03 L 169.381 20.791 L 169.381 20.791 Z  M 137.198 199.397 L 137.198 256 L 187.063 230.93 L 187.008 174.299 L 137.198 199.397 L 137.198 199.397 Z  M 186.99 154.542 L 186.935 98.505 L 137.198 123.419 L 137.198 179.474 L 186.99 154.542 L 186.99 154.542 Z  M 246.857 144.037 L 246.857 200.859 L 204.325 222.245 L 204.297 165.687 L 246.857 144.037 L 246.857 144.037 Z  M 246.857 124.169 L 246.857 68.489 L 204.242 89.838 L 204.279 145.984 L 246.857 124.169 L 246.857 124.169 Z  M 119.589 123.429 L 85.998 106.414 L 85.998 179.968 C 85.998 179.968 44.919 91.886 41.143 83.977 C 40.34 82.943 39.303 82.116 38.117 81.563 C 30.729 77.714 9.143 66.651 9.143 66.651 L 9.143 196.571 L 39.003 212.663 L 39.003 144.75 C 39.003 144.75 79.643 223.442 80.055 224.293 C 82.147 228.879 85.16 232.987 88.905 236.361 C 94.711 240.229 119.598 255.314 119.598 255.314 L 119.589 123.429 Z " fill-rule="evenodd" fill="rgb(255,255,255)"/></g></svg>