<?xml version="1.0" encoding="UTF-8" standalone="no"?>
<!-- Generator: Gravit.io -->
<svg xmlns="http://www.w3.org/2000/svg" xmlns:xlink="http://www.w3.org/1999/xlink" style="isolation:isolate" viewBox="0 0 256 256" width="256pt" height="256pt"><defs><clipPath id="_clipPath_B9fYFzfY0iDRJbz7O0PPgUJOzUJzeu7H"><rect width="256" height="256"/></clipPath></defs><g clip-path="url(#_clipPath_B9fYFzfY0iDRJbz7O0PPgUJOzUJzeu7H)"><path d=" M 92.473 15.132 L 120.451 15.132 L 120.451 73.22 L 92.481 73.22 L 92.473 15.132 Z  M 92.473 134.458 L 120.451 134.458 L 120.451 192.563 L 92.481 192.563 L 92.473 134.458 Z  M 92.473 90.183 L 120.451 90.183 L 120.451 117.597 L 92.481 117.597 L 92.473 90.183 Z  M 47.531 62.89 L 75.501 62.89 L 75.501 256 L 47.522 256 L 47.531 62.89 Z  M 136.49 182.395 L 164.469 182.395 L 164.469 240.483 L 136.49 240.483 L 136.49 182.395 Z  M 136.49 62.958 L 164.469 62.958 L 164.469 121.046 L 136.49 121.046 L 136.49 62.958 Z  M 136.49 138.018 L 164.469 138.018 L 164.469 165.432 L 136.49 165.432 L 136.49 138.018 Z  M 180.499 0 L 208.478 0 L 208.478 193.11 L 180.499 193.11 L 180.499 0 Z " fill="rgb(255,255,255)"/></g></svg>