<?xml version="1.0" encoding="UTF-8" standalone="no"?>
<!-- Generator: Gravit.io -->
<svg xmlns="http://www.w3.org/2000/svg" xmlns:xlink="http://www.w3.org/1999/xlink" style="isolation:isolate" viewBox="0 0 256 256" width="256pt" height="256pt"><defs><clipPath id="_clipPath_ub3eMxstZ4ZyC2C1M0iu7HiH5YNzMxra"><rect width="256" height="256"/></clipPath></defs><g clip-path="url(#_clipPath_ub3eMxstZ4ZyC2C1M0iu7HiH5YNzMxra)"><path d=" M 232.601 195.035 L 144.564 8.075 C 142.335 3.388 137.716 0.3 132.532 0.031 C 127.337 -0.317 122.379 2.253 119.669 6.699 L 24.183 161.355 C 21.219 166.123 21.281 172.175 24.343 176.88 L 71.027 249.175 C 74.655 254.748 81.516 257.271 87.89 255.376 L 223.366 215.303 C 227.493 214.096 230.895 211.159 232.691 207.252 C 234.462 203.364 234.431 198.893 232.607 195.029 L 232.601 195.035 Z  M 212.89 203.054 L 97.931 237.048 C 94.424 238.091 91.058 235.051 91.787 231.512 L 132.859 34.851 C 133.627 31.171 138.708 30.589 140.314 33.993 L 216.346 195.452 C 217.027 196.907 217.035 198.589 216.369 200.051 C 215.703 201.514 214.429 202.611 212.884 203.054 L 212.89 203.054 Z " fill="rgb(255,255,255)"/></g></svg>