<?xml version="1.0" encoding="UTF-8" standalone="no"?>
<!-- Generator: Gravit.io -->
<svg xmlns="http://www.w3.org/2000/svg" xmlns:xlink="http://www.w3.org/1999/xlink" style="isolation:isolate" viewBox="0 0 256 256" width="256pt" height="256pt"><defs><clipPath id="_clipPath_KDU2nRD6IjrIDlAFjzxn1KvLZjKVlfw7"><rect width="256" height="256"/></clipPath></defs><g clip-path="url(#_clipPath_KDU2nRD6IjrIDlAFjzxn1KvLZjKVlfw7)"><path d=" M 163.123 236.262 C 156.954 236.262 151.962 231.244 151.962 225.042 C 151.962 218.84 156.954 213.835 163.123 213.835 C 169.293 213.835 174.285 218.84 174.285 225.042 C 174.285 231.244 169.293 236.262 163.123 236.262 Z  M 128.922 256 C 193.92 256 189.862 227.667 189.862 227.667 L 189.786 198.318 L 127.77 198.318 L 127.77 189.504 L 214.413 189.504 C 214.413 189.504 256 194.252 256 128.335 C 256 62.417 219.712 64.746 219.712 64.746 L 198.042 64.746 L 198.042 95.344 C 198.042 95.344 199.206 131.821 162.33 131.821 L 100.813 131.821 C 100.813 131.821 66.253 131.268 66.253 165.404 L 66.253 221.838 C 66.253 221.838 61.005 256 128.922 256 Z  M 92.89 19.738 C 99.059 19.738 104.038 24.756 104.038 30.958 C 104.038 37.16 99.059 42.165 92.89 42.165 C 86.72 42.165 81.728 37.16 81.728 30.958 C 81.728 24.756 86.72 19.738 92.89 19.738 Z  M 127.078 0 C 62.093 0 66.15 28.333 66.15 28.333 L 66.227 57.682 L 128.243 57.682 L 128.243 66.496 L 41.587 66.496 C 41.587 66.496 0 61.748 0 127.665 C 0 193.583 36.301 191.254 36.301 191.254 L 57.958 191.254 L 57.958 160.656 C 57.958 160.656 56.794 124.179 93.683 124.179 L 155.187 124.179 C 155.187 124.179 189.747 124.732 189.747 90.596 L 189.747 34.162 C 189.747 34.162 194.995 0 127.078 0 Z " fill-rule="evenodd" fill="rgb(255,255,255)"/></g></svg>