<?xml version="1.0" encoding="UTF-8" standalone="no"?>
<!-- Generator: Gravit.io -->
<svg xmlns="http://www.w3.org/2000/svg" xmlns:xlink="http://www.w3.org/1999/xlink" style="isolation:isolate" viewBox="0 0 256 256" width="256pt" height="256pt"><defs><clipPath id="_clipPath_Q2SzVmcvSDtHFU88CBde4sS3fUBChGzX"><rect width="256" height="256"/></clipPath></defs><g clip-path="url(#_clipPath_Q2SzVmcvSDtHFU88CBde4sS3fUBChGzX)"><path d=" M 202.691 74.546 C 244.298 116.153 244.298 182.898 202.691 224.795 C 161.95 266.402 94.916 266.402 53.309 224.795 C 11.702 183.187 11.702 116.153 53.309 74.546 L 127.856 0 L 127.856 37.273 L 120.921 44.208 L 71.512 93.616 C 40.307 124.244 40.307 174.519 71.512 205.725 C 102.14 236.93 152.415 236.93 183.621 205.725 C 214.826 175.097 214.826 124.822 183.621 93.616 L 202.691 74.546 Z  M 165.418 69.923 C 157.758 69.923 151.549 63.714 151.549 56.054 C 151.549 48.394 157.758 42.185 165.418 42.185 C 173.077 42.185 179.287 48.394 179.287 56.054 C 179.287 63.714 173.077 69.923 165.418 69.923 Z " fill="rgb(255,255,255)"/></g></svg>