<?xml version="1.0" encoding="UTF-8" standalone="no"?>
<!-- Generator: Gravit.io -->
<svg xmlns="http://www.w3.org/2000/svg" xmlns:xlink="http://www.w3.org/1999/xlink" style="isolation:isolate" viewBox="0 0 256 256" width="256pt" height="256pt"><defs><clipPath id="_clipPath_0usrbBAj9xOBl4vYSusUf6CkFFqT1MCJ"><rect width="256" height="256"/></clipPath></defs><g clip-path="url(#_clipPath_0usrbBAj9xOBl4vYSusUf6CkFFqT1MCJ)"><path d=" M 64 102.4 Q 76.8 51.2 128 51.2 C 179.2 51.2 185.6 89.6 211.2 96 Q 236.8 102.4 256 76.8 Q 243.2 128 192 128 C 140.8 128 134.4 89.6 108.8 83.2 Q 83.2 76.8 64 102.4 Z  M 0 179.2 Q 12.8 128 64 128 C 115.2 128 121.6 166.4 147.2 172.8 Q 172.8 179.2 192 153.6 Q 179.2 204.8 128 204.8 C 76.8 204.8 70.4 166.4 44.8 160 Q 19.2 153.6 0 179.2 Z " fill="rgb(255,255,255)"/></g></svg>