<?xml version="1.0" encoding="UTF-8" standalone="no"?>
<!-- Generator: Gravit.io -->
<svg xmlns="http://www.w3.org/2000/svg" xmlns:xlink="http://www.w3.org/1999/xlink" style="isolation:isolate" viewBox="0 0 256 256" width="256pt" height="256pt"><defs><clipPath id="_clipPath_twJDthPqqjGTT5c4z9TLVGO981hrFOhv"><rect width="256" height="256"/></clipPath></defs><g clip-path="url(#_clipPath_twJDthPqqjGTT5c4z9TLVGO981hrFOhv)"><path d=" M 173.742 93.374 C 173.715 99.945 171.077 106.236 166.409 110.861 C 161.741 115.486 155.426 118.066 148.855 118.032 C 142.283 118.066 135.968 115.486 131.3 110.861 C 126.632 106.236 123.994 99.945 123.967 93.374 C 123.994 86.803 126.632 80.512 131.3 75.887 C 135.968 71.262 142.283 68.682 148.855 68.716 C 155.426 68.682 161.741 71.262 166.409 75.887 C 171.077 80.512 173.715 86.803 173.742 93.374 Z  M 132.033 162.626 C 132.006 169.197 129.368 175.488 124.7 180.113 C 120.032 184.738 113.717 187.318 107.145 187.284 C 100.574 187.318 94.259 184.738 89.591 180.113 C 84.923 175.488 82.285 169.197 82.258 162.626 C 82.285 156.055 84.923 149.764 89.591 145.139 C 94.259 140.514 100.574 137.934 107.145 137.968 C 113.717 137.934 120.032 140.514 124.7 145.139 C 129.368 149.764 132.006 156.055 132.033 162.626 Z  M 88.18 71.167 C 45.245 79.845 12.929 117.496 12.929 162.626 C 12.929 214.188 55.124 256 107.145 256 C 148.24 256.109 184.659 229.556 197.124 190.398 C 185.799 195.927 173.607 199.467 161.082 200.864 C 148.562 218.155 128.493 228.374 107.145 228.33 C 70.516 228.33 40.829 198.924 40.829 162.626 C 40.829 134.292 58.952 110.145 84.325 100.93 C 83.304 90.898 84.58 80.713 88.18 71.167 Z  M 167.82 184.833 C 210.78 176.155 243.071 138.478 243.071 93.374 C 243.071 41.812 200.902 0 148.88 0 C 107.776 -0.12 71.344 26.435 58.876 65.602 C 70.201 60.073 82.393 56.533 94.918 55.136 C 107.438 37.828 127.519 27.598 148.88 27.645 C 185.51 27.645 215.196 57.076 215.196 93.374 C 215.196 121.708 197.073 145.855 171.7 155.07 C 172.721 165.102 171.445 175.287 167.871 184.833 L 167.82 184.833 Z " fill-rule="evenodd" fill="rgb(255,255,255)"/></g></svg>