<?xml version="1.0" encoding="UTF-8" standalone="no"?>
<!-- Generator: Gravit.io -->
<svg xmlns="http://www.w3.org/2000/svg" xmlns:xlink="http://www.w3.org/1999/xlink" style="isolation:isolate" viewBox="0 0 256 256" width="256pt" height="256pt"><defs><clipPath id="_clipPath_sRO2RaE8VXkcdrf4LyMP46aYTBhYMMCp"><rect width="256" height="256"/></clipPath></defs><g clip-path="url(#_clipPath_sRO2RaE8VXkcdrf4LyMP46aYTBhYMMCp)"><path d=" M 64.038 17.187 C 103.641 -5.678 152.434 -5.678 192.038 17.187 C 231.641 40.052 256.038 82.308 256.038 128.038 C 256.038 173.768 231.641 216.024 192.038 238.889 C 152.434 261.753 103.641 261.753 64.038 238.889 C 24.435 216.024 0.038 173.768 0.038 128.038 C 0.038 82.308 24.435 40.052 64.038 17.187 Z  M 127.762 93.369 C 108.797 93.369 93.368 108.798 93.368 127.762 C 93.368 146.727 108.797 162.156 127.762 162.156 C 146.726 162.156 162.155 146.727 162.155 127.762 C 162.155 108.798 146.726 93.369 127.762 93.369 Z  M 127.762 145.561 C 117.93 145.561 109.963 137.594 109.963 127.762 C 109.963 117.931 117.93 109.964 127.762 109.964 C 137.593 109.964 145.56 117.931 145.56 127.762 C 145.56 137.594 137.593 145.561 127.762 145.561 Z  M 130.644 87.72 L 130.644 74.879 C 158.556 76.371 180.729 99.479 180.729 127.762 C 180.729 156.046 158.556 179.147 130.644 180.646 L 130.644 167.805 C 151.447 166.319 167.92 148.936 167.92 127.762 C 167.92 106.589 151.447 89.206 130.644 87.72 Z  M 97.43 154.022 C 91.915 147.656 88.36 139.547 87.726 130.645 L 74.879 130.645 C 75.545 143.102 80.528 154.406 88.335 163.11 L 97.423 154.022 L 97.43 154.022 Z  M 124.88 180.646 L 124.88 167.805 C 115.971 167.171 107.863 163.622 101.497 158.102 L 92.408 167.19 C 101.119 175.004 112.423 179.98 124.874 180.646 L 124.88 180.646 Z " fill-rule="evenodd" fill="rgb(255,255,255)"/></g></svg>