<?xml version="1.0" encoding="UTF-8" standalone="no"?>
<!-- Generator: Gravit.io -->
<svg xmlns="http://www.w3.org/2000/svg" xmlns:xlink="http://www.w3.org/1999/xlink" style="isolation:isolate" viewBox="0 0 256 256" width="256pt" height="256pt"><defs><clipPath id="_clipPath_NzAiZ9xdfGcJVq1AKWjOVZm83MeH6dzk"><rect width="256" height="256"/></clipPath></defs><g clip-path="url(#_clipPath_NzAiZ9xdfGcJVq1AKWjOVZm83MeH6dzk)"><path d=" M 11.995 0 L 244.005 0 C 250.625 0 256 5.375 256 11.995 L 256 244.005 C 256 250.625 250.625 256 244.005 256 L 11.995 256 C 5.375 256 0 250.625 0 244.005 L 0 11.995 C 0 5.375 5.375 0 11.995 0 Z  M 148.526 198.939 L 148.526 226.99 C 153.622 229.505 159.054 231.276 164.654 232.247 C 171.125 233.442 177.694 234.029 184.274 234.002 C 190.688 234.033 197.087 233.386 203.365 232.073 C 209.001 230.934 214.379 228.765 219.227 225.673 C 223.729 222.767 227.439 218.79 230.025 214.098 C 234.657 204.382 235.268 193.231 231.726 183.067 C 230.231 179.267 228.003 175.797 225.17 172.855 C 222.129 169.727 218.675 167.029 214.903 164.837 C 210.56 162.293 206.048 160.051 201.399 158.126 Q 195.913 155.849 191.525 153.701 C 188.926 152.456 186.439 150.991 184.091 149.321 C 182.253 148.032 180.656 146.429 179.374 144.585 C 178.266 142.911 177.689 140.942 177.719 138.935 C 177.694 137.088 178.209 135.273 179.2 133.714 C 180.276 132.083 181.712 130.719 183.397 129.728 C 185.456 128.515 187.697 127.642 190.034 127.141 C 192.903 126.503 195.836 126.196 198.775 126.226 C 201.247 126.235 203.715 126.412 206.162 126.757 C 208.805 127.114 211.42 127.655 213.989 128.375 C 216.601 129.099 219.156 130.016 221.632 131.118 C 224.035 132.189 226.334 133.481 228.498 134.976 L 228.498 108.8 C 223.992 107.095 219.318 105.869 214.555 105.143 C 208.804 104.306 202.996 103.912 197.184 103.963 C 190.831 103.929 184.496 104.65 178.313 106.112 C 172.725 107.389 167.411 109.659 162.624 112.814 C 158.178 115.776 154.506 119.761 151.918 124.434 C 149.175 129.624 147.817 135.435 147.977 141.303 C 147.775 149.063 150.331 156.644 155.191 162.697 C 161.154 169.409 168.673 174.554 177.088 177.682 Q 182.848 180.059 187.831 182.336 C 190.828 183.67 193.709 185.251 196.443 187.063 C 198.649 188.498 200.586 190.308 202.167 192.411 C 203.557 194.319 204.294 196.625 204.27 198.985 C 204.282 200.754 203.828 202.495 202.953 204.032 C 201.981 205.684 200.614 207.069 198.976 208.064 C 196.926 209.314 194.683 210.216 192.338 210.734 C 189.284 211.417 186.16 211.739 183.031 211.694 C 176.89 211.682 170.797 210.6 165.029 208.494 C 159.002 206.319 153.413 203.083 148.526 198.939 Z  M 101.403 129.106 L 137.975 129.106 L 137.975 106.002 L 36.005 106.002 L 36.005 129.106 L 72.411 129.106 L 72.411 232 L 101.403 232 L 101.403 129.106 Z " fill-rule="evenodd" fill="rgb(255,255,255)"/></g></svg>