<?xml version="1.0" encoding="UTF-8" standalone="no"?>
<!-- Generator: Gravit.io -->
<svg xmlns="http://www.w3.org/2000/svg" xmlns:xlink="http://www.w3.org/1999/xlink" style="isolation:isolate" viewBox="0 0 256 256" width="256pt" height="256pt"><defs><clipPath id="_clipPath_ECdQpLelD2WOLKoeh9NUROnA4GASM98z"><rect width="256" height="256"/></clipPath></defs><g clip-path="url(#_clipPath_ECdQpLelD2WOLKoeh9NUROnA4GASM98z)"><path d=" M 0 3.872 L 127.536 252.128 L 256 3.872 L 0 3.872 Z  M 107.712 102.432 L 87.392 102.432 L 87.392 82.112 L 107.712 82.112 L 107.712 102.432 Z  M 107.712 71.936 L 87.392 71.936 L 87.392 51.632 L 107.712 51.632 L 107.712 71.936 Z  M 138.176 132.896 L 117.856 132.896 L 117.856 112.576 L 138.176 112.576 L 138.176 132.896 Z  M 138.176 102.416 L 117.856 102.416 L 117.856 82.112 L 138.176 82.112 L 138.176 102.432 L 138.176 102.416 Z  M 138.176 71.936 L 117.856 71.936 L 117.856 51.632 L 138.176 51.632 L 138.176 71.936 Z  M 168.48 102.416 L 148.16 102.416 L 148.16 82.112 L 168.48 82.112 L 168.48 102.432 L 168.48 102.416 Z  M 148.16 71.936 L 148.16 51.632 L 168.48 51.632 L 168.48 71.936 L 148.16 71.936 Z " fill="rgb(255,255,255)"/></g></svg>