<?xml version="1.0" encoding="UTF-8" standalone="no"?>
<!-- Generator: Gravit.io -->
<svg xmlns="http://www.w3.org/2000/svg" xmlns:xlink="http://www.w3.org/1999/xlink" style="isolation:isolate" viewBox="0 0 512 512" width="512pt" height="512pt"><defs><clipPath id="_clipPath_E4gdkfYQbXiaTaO4xNaEHPI3d9xrKf87"><rect width="512" height="512"/></clipPath></defs><g clip-path="url(#_clipPath_E4gdkfYQbXiaTaO4xNaEHPI3d9xrKf87)"><g><path d=" M 512 24.453 C 512 10.957 501.043 0 487.527 0 L 24.453 0 C 10.957 0 0 10.957 0 24.453 L 0 487.547 C 0 501.043 10.957 512 24.453 512 L 487.527 512 C 501.043 512 512 501.043 512 487.547 L 512 24.453 Z " fill-rule="evenodd" fill="rgb(255,255,255)"/><radialGradient id="_rgradient_1" fx="0.5" fy="0.5" cx="0.5" cy="0.5" r="0.5"><stop offset="0%" stop-opacity="1" style="stop-color:rgb(0,0,0)"/><stop offset="100%" stop-opacity="1" style="stop-color:rgb(0,0,0)"/></radialGradient><path d=" M 128 355.556 C 128 371.265 140.735 384 156.444 384 C 184.889 384 184.889 327.111 199.111 256 C 213.333 184.889 213.333 128 241.778 128 C 257.487 128 270.222 140.735 270.222 156.444 M 156.444 256 L 241.778 256 M 298.667 256 L 384 341.333 M 298.667 341.333 L 384 256" fill-rule="evenodd" fill="rgb(255,255,255)" vector-effect="non-scaling-stroke" stroke-width="16.667" stroke="url(#_rgradient_1)" stroke-linejoin="round" stroke-linecap="round" stroke-miterlimit="4"/></g></g></svg>