<?xml version="1.0" encoding="UTF-8" standalone="no"?><svg width="1018" height="515" viewBox="0 0 1018 515" xmlns="http://www.w3.org/2000/svg">
<defs>
<marker id="startarrow" markerWidth="10" markerHeight="7"
refX="0" refY="3.5" orient="auto">
<polygon points="10 0, 10 7, 0 3.5" fill="context-stroke" />
</marker>
<marker id="endarrow" markerWidth="10" markerHeight="7"
refX="10" refY="3.5" orient="auto">
<polygon points="0 0, 10 3.5, 0 7" fill="context-stroke" />
</marker>

</defs><style>
.a15 { font-size: 15px; font-family: Times, serif; }
</style>
<g >

            <rect x="510" y="210" width="0" height="0" fill="#ffffffff" 
            stroke-width="2" stroke="#000000ff" rx="0"  />

            </g>
<text dominant-baseline="middle" text-anchor="middle" 
            x="510" y="195" class="a15"><tspan x = "510" dy="1.0em">___ROOT___</tspan></text><g >

            <rect x="943" y="150" width="0" height="0" fill="#ffffffff" 
            stroke-width="2" stroke="#000000ff" rx="0"  />

            </g>
<text dominant-baseline="middle" text-anchor="middle" 
            x="943" y="135" class="a15"><tspan x = "943" dy="1.0em">@simple-upload/solid#build</tspan></text><g >

            <rect x="666" y="90" width="0" height="0" fill="#ffffffff" 
            stroke-width="2" stroke="#000000ff" rx="0"  />

            </g>
<text dominant-baseline="middle" text-anchor="middle" 
            x="666" y="75" class="a15"><tspan x = "666" dy="1.0em">@chess/ts#build</tspan></text><g >

            <rect x="1003" y="150" width="0" height="0" fill="#ffffffff" 
            stroke-width="2" stroke="#000000ff" rx="0"  />

            </g>
<text dominant-baseline="middle" text-anchor="middle" 
            x="1003" y="135" class="a15"><tspan x = "1003" dy="1.0em">@hieudoanm.github.io/extension#build</tspan></text><g >

            <rect x="934" y="90" width="0" height="0" fill="#ffffffff" 
            stroke-width="2" stroke="#000000ff" rx="0"  />

            </g>
<text dominant-baseline="middle" text-anchor="middle" 
            x="934" y="75" class="a15"><tspan x = "934" dy="1.0em">@frontend/react#build</tspan></text><g >

            <rect x="868" y="150" width="0" height="0" fill="#ffffffff" 
            stroke-width="2" stroke="#000000ff" rx="0"  />

            </g>
<text dominant-baseline="middle" text-anchor="middle" 
            x="868" y="135" class="a15"><tspan x = "868" dy="1.0em">@lodashx/ts#build</tspan></text><g >

            <rect x="726" y="90" width="0" height="0" fill="#ffffffff" 
            stroke-width="2" stroke="#000000ff" rx="0"  />

            </g>
<text dominant-baseline="middle" text-anchor="middle" 
            x="726" y="75" class="a15"><tspan x = "726" dy="1.0em">@lodash/ts#build</tspan></text><g >

            <rect x="868" y="90" width="0" height="0" fill="#ffffffff" 
            stroke-width="2" stroke="#000000ff" rx="0"  />

            </g>
<text dominant-baseline="middle" text-anchor="middle" 
            x="868" y="75" class="a15"><tspan x = "868" dy="1.0em">@frontend/solid#build</tspan></text><g >

            <rect x="30" y="150" width="0" height="0" fill="#ffffffff" 
            stroke-width="2" stroke="#000000ff" rx="0"  />

            </g>
<text dominant-baseline="middle" text-anchor="middle" 
            x="30" y="135" class="a15"><tspan x = "30" dy="1.0em">@hieudoanm.github.io/code#build</tspan></text><g >

            <rect x="797" y="90" width="0" height="0" fill="#ffffffff" 
            stroke-width="2" stroke="#000000ff" rx="0"  />

            </g>
<text dominant-baseline="middle" text-anchor="middle" 
            x="797" y="75" class="a15"><tspan x = "797" dy="1.0em">@frontend/native#build</tspan></text><g >

            <rect x="90" y="150" width="0" height="0" fill="#ffffffff" 
            stroke-width="2" stroke="#000000ff" rx="0"  />

            </g>
<text dominant-baseline="middle" text-anchor="middle" 
            x="90" y="135" class="a15"><tspan x = "90" dy="1.0em">@simple-upload/server#build</tspan></text><g >

            <rect x="606" y="90" width="0" height="0" fill="#ffffffff" 
            stroke-width="2" stroke="#000000ff" rx="0"  />

            </g>
<text dominant-baseline="middle" text-anchor="middle" 
            x="606" y="75" class="a15"><tspan x = "606" dy="1.0em">@api/ts#build</tspan></text><g >

            <rect x="797" y="30" width="0" height="0" fill="#ffffffff" 
            stroke-width="2" stroke="#000000ff" rx="0"  />

            </g>
<text dominant-baseline="middle" text-anchor="middle" 
            x="797" y="15" class="a15"><tspan x = "797" dy="1.0em">@hieudoanm.github.io/solid#build</tspan></text><g >

            <rect x="150" y="150" width="0" height="0" fill="#ffffffff" 
            stroke-width="2" stroke="#000000ff" rx="0"  />

            </g>
<text dominant-baseline="middle" text-anchor="middle" 
            x="150" y="135" class="a15"><tspan x = "150" dy="1.0em">chess_rs#build</tspan></text><g >

            <rect x="210" y="150" width="0" height="0" fill="#ffffffff" 
            stroke-width="2" stroke="#000000ff" rx="0"  />

            </g>
<text dominant-baseline="middle" text-anchor="middle" 
            x="210" y="135" class="a15"><tspan x = "210" dy="1.0em">lodash_rs#build</tspan></text><g >

            <rect x="270" y="150" width="0" height="0" fill="#ffffffff" 
            stroke-width="2" stroke="#000000ff" rx="0"  />

            </g>
<text dominant-baseline="middle" text-anchor="middle" 
            x="270" y="135" class="a15"><tspan x = "270" dy="1.0em">obsidian-flow#build</tspan></text><g >

            <rect x="922.5" y="30" width="0" height="0" fill="#ffffffff" 
            stroke-width="2" stroke="#000000ff" rx="0"  />

            </g>
<text dominant-baseline="middle" text-anchor="middle" 
            x="922.5" y="15" class="a15"><tspan x = "922.5" dy="1.0em">@hieudoanm.github.io/expo#build</tspan></text><g >

            <rect x="608" y="30" width="0" height="0" fill="#ffffffff" 
            stroke-width="2" stroke="#000000ff" rx="0"  />

            </g>
<text dominant-baseline="middle" text-anchor="middle" 
            x="608" y="15" class="a15"><tspan x = "608" dy="1.0em">@hieudoanm.github.io/next#build</tspan></text><g >

            <rect x="330" y="150" width="0" height="0" fill="#ffffffff" 
            stroke-width="2" stroke="#000000ff" rx="0"  />

            </g>
<text dominant-baseline="middle" text-anchor="middle" 
            x="330" y="135" class="a15"><tspan x = "330" dy="1.0em">hieudoanm_api#build</tspan></text><g >

            <rect x="390" y="150" width="0" height="0" fill="#ffffffff" 
            stroke-width="2" stroke="#000000ff" rx="0"  />

            </g>
<text dominant-baseline="middle" text-anchor="middle" 
            x="390" y="135" class="a15"><tspan x = "390" dy="1.0em">@svg/themes#build</tspan></text><g >

            <rect x="270" y="90" width="0" height="0" fill="#ffffffff" 
            stroke-width="2" stroke="#000000ff" rx="0"  />

            </g>
<text dominant-baseline="middle" text-anchor="middle" 
            x="270" y="75" class="a15"><tspan x = "270" dy="1.0em">@simple/demo#build</tspan></text><g >

            <rect x="450" y="150" width="0" height="0" fill="#ffffffff" 
            stroke-width="2" stroke="#000000ff" rx="0"  />

            </g>
<text dominant-baseline="middle" text-anchor="middle" 
            x="450" y="135" class="a15"><tspan x = "450" dy="1.0em">@simple-upload/react#build</tspan></text><g >

            <rect x="510" y="150" width="0" height="0" fill="#ffffffff" 
            stroke-width="2" stroke="#000000ff" rx="0"  />

            </g>
<text dominant-baseline="middle" text-anchor="middle" 
            x="510" y="135" class="a15"><tspan x = "510" dy="1.0em">@hieudoanm.github.io/docs#build</tspan></text><g >

            <rect x="570" y="150" width="0" height="0" fill="#ffffffff" 
            stroke-width="2" stroke="#000000ff" rx="0"  />

            </g>
<text dominant-baseline="middle" text-anchor="middle" 
            x="570" y="135" class="a15"><tspan x = "570" dy="1.0em">lodashx_rs#build</tspan></text><g >

            <path id="arrow0" d="M 943 150 C 913.2839344811301 154.11769961000505, 539.7160655188699 205.88230038999495, 510 210 " stroke="#000000ff" stroke-width="2"   marker-end="url(#endarrow)" 
            fill="transparent" />

            </g>
<text><textPath href="#arrow0" startOffset="50%" text-anchor="middle" class="a15"></textPath></text><g >

            <path id="arrow1" d="M 666 90 C 666 120, 666 120, 666 150 S 538.0003681860918 199.23062762073394, 510 210 " stroke="#000000ff" stroke-width="2"   marker-end="url(#endarrow)" 
            fill="transparent" />

            </g>
<text><textPath href="#arrow1" startOffset="50%" text-anchor="middle" class="a15"></textPath></text><g >

            <path id="arrow2" d="M 1003 150 C 973.219739355778 153.6243724921974, 539.780260644222 206.3756275078026, 510 210 " stroke="#000000ff" stroke-width="2"   marker-end="url(#endarrow)" 
            fill="transparent" />

            </g>
<text><textPath href="#arrow2" startOffset="50%" text-anchor="middle" class="a15"></textPath></text><g >

            <path id="arrow3" d="M 934 90 C 911.8017977981217 110.18018381988938, 890.1982022018783 129.81981618011062, 868 150 " stroke="#000000ff" stroke-width="2"   marker-end="url(#endarrow)" 
            fill="transparent" />

            </g>
<text><textPath href="#arrow3" startOffset="50%" text-anchor="middle" class="a15"></textPath></text><g >

            <path id="arrow4" d="M 726 90 C 726 120, 726 120, 726 150 S 538.9055372888982 201.97068408641715, 510 210 " stroke="#000000ff" stroke-width="2"   marker-end="url(#endarrow)" 
            fill="transparent" />

            </g>
<text><textPath href="#arrow4" startOffset="50%" text-anchor="middle" class="a15"></textPath></text><g >

            <path id="arrow5" d="M 868 90 C 868 120, 868 120, 868 150 " stroke="#000000ff" stroke-width="2"   marker-end="url(#endarrow)" 
            fill="transparent" />

            </g>
<text><textPath href="#arrow5" startOffset="50%" text-anchor="middle" class="a15"></textPath></text><g >

            <path id="arrow6" d="M 30 150 C 59.76833630141003 153.72104203767626, 480.23166369858995 206.27895796232374, 510 210 " stroke="#000000ff" stroke-width="2"   marker-end="url(#endarrow)" 
            fill="transparent" />

            </g>
<text><textPath href="#arrow6" startOffset="50%" text-anchor="middle" class="a15"></textPath></text><g >

            <path id="arrow7" d="M 797 90 C 797 120, 797 120, 797 150 S 539.3651493472223 203.86094438734028, 510 210 " stroke="#000000ff" stroke-width="2"   marker-end="url(#endarrow)" 
            fill="transparent" />

            </g>
<text><textPath href="#arrow7" startOffset="50%" text-anchor="middle" class="a15"></textPath></text><g >

            <path id="arrow8" d="M 90 150 C 119.698484809835 154.2426406871193, 480.301515190165 205.7573593128807, 510 210 " stroke="#000000ff" stroke-width="2"   marker-end="url(#endarrow)" 
            fill="transparent" />

            </g>
<text><textPath href="#arrow8" startOffset="50%" text-anchor="middle" class="a15"></textPath></text><g >

            <path id="arrow9" d="M 606 90 C 606 120, 606 120, 606 150 S 535.4399491201526 194.1000317999046, 510 210 " stroke="#000000ff" stroke-width="2"   marker-end="url(#endarrow)" 
            fill="transparent" />

            </g>
<text><textPath href="#arrow9" startOffset="50%" text-anchor="middle" class="a15"></textPath></text><g >

            <path id="arrow10" d="M 797 30 C 797 60, 797 60, 797 90 " stroke="#000000ff" stroke-width="2"   marker-end="url(#endarrow)" 
            fill="transparent" />

            </g>
<text><textPath href="#arrow10" startOffset="50%" text-anchor="middle" class="a15"></textPath></text><g >

            <path id="arrow11" d="M 797 30 C 769.7247703351898 42.49247160220318, 693.2752296648102 77.50752839779682, 666 90 " stroke="#000000ff" stroke-width="2"   marker-end="url(#endarrow)" 
            fill="transparent" />

            </g>
<text><textPath href="#arrow11" startOffset="50%" text-anchor="middle" class="a15"></textPath></text><g >

            <path id="arrow12" d="M 797 30 C 774.0861745281394 49.36379617340336, 748.9138254718606 70.63620382659664, 726 90 " stroke="#000000ff" stroke-width="2"   marker-end="url(#endarrow)" 
            fill="transparent" />

            </g>
<text><textPath href="#arrow12" startOffset="50%" text-anchor="middle" class="a15"></textPath></text><g >

            <path id="arrow13" d="M 797 30 C 819.9138254718606 49.36379617340336, 845.0861745281394 70.63620382659664, 868 90 " stroke="#000000ff" stroke-width="2"   marker-end="url(#endarrow)" 
            fill="transparent" />

            </g>
<text><textPath href="#arrow13" startOffset="50%" text-anchor="middle" class="a15"></textPath></text><g >

            <path id="arrow14" d="M 797 30 C 812.4348726628258 55.72478777137633, 817.7250802982891 64.18057826111432, 833 90 S 852.8838692342774 124.08663297304699, 868 150 " stroke="#000000ff" stroke-width="2"   marker-end="url(#endarrow)" 
            fill="transparent" />

            </g>
<text><textPath href="#arrow14" startOffset="50%" text-anchor="middle" class="a15"></textPath></text><g >

            <path id="arrow15" d="M 797 30 C 768.3789641431233 38.990901316296345, 634.6210358568767 81.00909868370366, 606 90 " stroke="#000000ff" stroke-width="2"   marker-end="url(#endarrow)" 
            fill="transparent" />

            </g>
<text><textPath href="#arrow15" startOffset="50%" text-anchor="middle" class="a15"></textPath></text><g >

            <path id="arrow16" d="M 150 150 C 179.59181771496432 154.93196961916072, 480.4081822850357 205.06803038083928, 510 210 " stroke="#000000ff" stroke-width="2"   marker-end="url(#endarrow)" 
            fill="transparent" />

            </g>
<text><textPath href="#arrow16" startOffset="50%" text-anchor="middle" class="a15"></textPath></text><g >

            <path id="arrow17" d="M 210 150 C 239.4174202707276 155.88348405414553, 480.58257972927237 204.11651594585447, 510 210 " stroke="#000000ff" stroke-width="2"   marker-end="url(#endarrow)" 
            fill="transparent" />

            </g>
<text><textPath href="#arrow17" startOffset="50%" text-anchor="middle" class="a15"></textPath></text><g >

            <path id="arrow18" d="M 270 150 C 299.10427500436 157.27606875108998, 480.89572499564 202.72393124891002, 510 210 " stroke="#000000ff" stroke-width="2"   marker-end="url(#endarrow)" 
            fill="transparent" />

            </g>
<text><textPath href="#arrow18" startOffset="50%" text-anchor="middle" class="a15"></textPath></text><g >

            <path id="arrow19" d="M 922.5 30 C 928.1472073185805 59.46369035781111, 928.3527926814195 60.53630964218889, 934 90 " stroke="#000000ff" stroke-width="2"   marker-end="url(#endarrow)" 
            fill="transparent" />

            </g>
<text><textPath href="#arrow19" startOffset="50%" text-anchor="middle" class="a15"></textPath></text><g >

            <path id="arrow20" d="M 922.5 30 C 895.4341487693724 42.93984919392554, 824.0658512306276 77.06015080607446, 797 90 " stroke="#000000ff" stroke-width="2"   marker-end="url(#endarrow)" 
            fill="transparent" />

            </g>
<text><textPath href="#arrow20" startOffset="50%" text-anchor="middle" class="a15"></textPath></text><g >

            <path id="arrow21" d="M 922.5 30 C 947.4185922893529 46.70520153476169, 1008.5746837197976 75.40558099978355, 1012 90 S 895.6923076923077 138.46153846153845, 868 150 " stroke="#000000ff" stroke-width="2"   marker-end="url(#endarrow)" 
            fill="transparent" />

            </g>
<text><textPath href="#arrow21" startOffset="50%" text-anchor="middle" class="a15"></textPath></text><g >

            <path id="arrow22" d="M 608 30 C 607.0005550930208 59.98334720937463, 606.9994449069792 60.01665279062537, 606 90 " stroke="#000000ff" stroke-width="2"   marker-end="url(#endarrow)" 
            fill="transparent" />

            </g>
<text><textPath href="#arrow22" startOffset="50%" text-anchor="middle" class="a15"></textPath></text><g >

            <path id="arrow23" d="M 608 30 C 634.7415539062041 43.59740029129023, 699.2584460937959 76.40259970870977, 726 90 " stroke="#000000ff" stroke-width="2"   marker-end="url(#endarrow)" 
            fill="transparent" />

            </g>
<text><textPath href="#arrow23" startOffset="50%" text-anchor="middle" class="a15"></textPath></text><g >

            <path id="arrow24" d="M 608 30 C 628.8506629054242 51.569651281473355, 645.1493370945758 68.43034871852664, 666 90 " stroke="#000000ff" stroke-width="2"   marker-end="url(#endarrow)" 
            fill="transparent" />

            </g>
<text><textPath href="#arrow24" startOffset="50%" text-anchor="middle" class="a15"></textPath></text><g >

            <path id="arrow25" d="M 608 30 C 636.5937280143363 39.07737397280517, 768.4062719856637 80.92262602719484, 797 90 " stroke="#000000ff" stroke-width="2"   marker-end="url(#endarrow)" 
            fill="transparent" />

            </g>
<text><textPath href="#arrow25" startOffset="50%" text-anchor="middle" class="a15"></textPath></text><g >

            <path id="arrow26" d="M 608 30 C 635.9533217595596 40.8909045816466, 735.1092274010164 76.87126642867098, 762 90 S 841.8922943478563 135.2220534044469, 868 150 " stroke="#000000ff" stroke-width="2"   marker-end="url(#endarrow)" 
            fill="transparent" />

            </g>
<text><textPath href="#arrow26" startOffset="50%" text-anchor="middle" class="a15"></textPath></text><g >

            <path id="arrow27" d="M 608 30 C 637.5044439664307 35.43026576069276, 904.4955560335693 84.56973423930724, 934 90 " stroke="#000000ff" stroke-width="2"   marker-end="url(#endarrow)" 
            fill="transparent" />

            </g>
<text><textPath href="#arrow27" startOffset="50%" text-anchor="middle" class="a15"></textPath></text><g >

            <path id="arrow28" d="M 330 150 C 358.4604989415154 159.48683298050514, 481.5395010584846 200.51316701949486, 510 210 " stroke="#000000ff" stroke-width="2"   marker-end="url(#endarrow)" 
            fill="transparent" />

            </g>
<text><textPath href="#arrow28" startOffset="50%" text-anchor="middle" class="a15"></textPath></text><g >

            <path id="arrow29" d="M 868 150 C 838.4126617865566 154.9587717676162, 539.5873382134434 205.0412282323838, 510 210 " stroke="#000000ff" stroke-width="2"   marker-end="url(#endarrow)" 
            fill="transparent" />

            </g>
<text><textPath href="#arrow29" startOffset="50%" text-anchor="middle" class="a15"></textPath></text><g >

            <path id="arrow30" d="M 390 150 C 416.8328157299975 163.41640786499875, 483.1671842700025 196.58359213500125, 510 210 " stroke="#000000ff" stroke-width="2"   marker-end="url(#endarrow)" 
            fill="transparent" />

            </g>
<text><textPath href="#arrow30" startOffset="50%" text-anchor="middle" class="a15"></textPath></text><g >

            <path id="arrow31" d="M 270 90 C 298.4604989415154 99.48683298050514, 421.5395010584846 140.51316701949486, 450 150 " stroke="#000000ff" stroke-width="2"   marker-end="url(#endarrow)" 
            fill="transparent" />

            </g>
<text><textPath href="#arrow31" startOffset="50%" text-anchor="middle" class="a15"></textPath></text><g >

            <path id="arrow32" d="M 270 90 C 241.53950105848457 99.48683298050514, 118.46049894151541 140.51316701949486, 90 150 " stroke="#000000ff" stroke-width="2"   marker-end="url(#endarrow)" 
            fill="transparent" />

            </g>
<text><textPath href="#arrow32" startOffset="50%" text-anchor="middle" class="a15"></textPath></text><g >

            <path id="arrow33" d="M 450 150 C 471.2132034355964 171.21320343559643, 488.7867965644036 188.78679656440357, 510 210 " stroke="#000000ff" stroke-width="2"   marker-end="url(#endarrow)" 
            fill="transparent" />

            </g>
<text><textPath href="#arrow33" startOffset="50%" text-anchor="middle" class="a15"></textPath></text><g >

            <path id="arrow34" d="M 510 150 C 510 180, 510 180, 510 210 " stroke="#000000ff" stroke-width="2"   marker-end="url(#endarrow)" 
            fill="transparent" />

            </g>
<text><textPath href="#arrow34" startOffset="50%" text-anchor="middle" class="a15"></textPath></text><g >

            <path id="arrow35" d="M 570 150 C 548.7867965644036 171.21320343559643, 531.2132034355964 188.78679656440357, 510 210 " stroke="#000000ff" stroke-width="2"   marker-end="url(#endarrow)" 
            fill="transparent" />

            </g>
<text><textPath href="#arrow35" startOffset="50%" text-anchor="middle" class="a15"></textPath></text></svg>