<?xml version="1.0" encoding="UTF-8" standalone="no"?><svg width="971" height="515" viewBox="0 0 971 515" xmlns="http://www.w3.org/2000/svg">
<defs>
<marker id="startarrow" markerWidth="10" markerHeight="7"
refX="0" refY="3.5" orient="auto">
<polygon points="10 0, 10 7, 0 3.5" fill="context-stroke" />
</marker>
<marker id="endarrow" markerWidth="10" markerHeight="7"
refX="10" refY="3.5" orient="auto">
<polygon points="0 0, 10 3.5, 0 7" fill="context-stroke" />
</marker>

</defs><style>
.a15 { font-size: 15px; font-family: Times, serif; }
</style>
<g >

            <rect x="450" y="210" width="0" height="0" fill="#ffffffff" 
            stroke-width="2" stroke="#000000ff" rx="0"  />

            </g>
<text dominant-baseline="middle" text-anchor="middle" 
            x="450" y="195" class="a15"><tspan x = "450" dy="1.0em">___ROOT___</tspan></text><g >

            <rect x="918" y="30" width="0" height="0" fill="#ffffffff" 
            stroke-width="2" stroke="#000000ff" rx="0"  />

            </g>
<text dominant-baseline="middle" text-anchor="middle" 
            x="918" y="15" class="a15"><tspan x = "918" dy="1.0em">@hieudoanm.github.io/expo#build</tspan></text><g >

            <rect x="918" y="90" width="0" height="0" fill="#ffffffff" 
            stroke-width="2" stroke="#000000ff" rx="0"  />

            </g>
<text dominant-baseline="middle" text-anchor="middle" 
            x="918" y="75" class="a15"><tspan x = "918" dy="1.0em">@frontend/react#build</tspan></text><g >

            <rect x="858" y="90" width="0" height="0" fill="#ffffffff" 
            stroke-width="2" stroke="#000000ff" rx="0"  />

            </g>
<text dominant-baseline="middle" text-anchor="middle" 
            x="858" y="75" class="a15"><tspan x = "858" dy="1.0em">@frontend/native#build</tspan></text><g >

            <rect x="822" y="150" width="0" height="0" fill="#ffffffff" 
            stroke-width="2" stroke="#000000ff" rx="0"  />

            </g>
<text dominant-baseline="middle" text-anchor="middle" 
            x="822" y="135" class="a15"><tspan x = "822" dy="1.0em">@lodashx/ts#build</tspan></text><g >

            <rect x="630.25" y="30" width="0" height="0" fill="#ffffffff" 
            stroke-width="2" stroke="#000000ff" rx="0"  />

            </g>
<text dominant-baseline="middle" text-anchor="middle" 
            x="630.25" y="15" class="a15"><tspan x = "630.25" dy="1.0em">@hieudoanm.github.io/solid#build</tspan></text><g >

            <rect x="477.5" y="90" width="0" height="0" fill="#ffffffff" 
            stroke-width="2" stroke="#000000ff" rx="0"  />

            </g>
<text dominant-baseline="middle" text-anchor="middle" 
            x="477.5" y="75" class="a15"><tspan x = "477.5" dy="1.0em">@frontend/solid#build</tspan></text><g >

            <rect x="666" y="90" width="0" height="0" fill="#ffffffff" 
            stroke-width="2" stroke="#000000ff" rx="0"  />

            </g>
<text dominant-baseline="middle" text-anchor="middle" 
            x="666" y="75" class="a15"><tspan x = "666" dy="1.0em">@lodash/ts#build</tspan></text><g >

            <rect x="786" y="90" width="0" height="0" fill="#ffffffff" 
            stroke-width="2" stroke="#000000ff" rx="0"  />

            </g>
<text dominant-baseline="middle" text-anchor="middle" 
            x="786" y="75" class="a15"><tspan x = "786" dy="1.0em">@api/ts#build</tspan></text><g >

            <rect x="726" y="90" width="0" height="0" fill="#ffffffff" 
            stroke-width="2" stroke="#000000ff" rx="0"  />

            </g>
<text dominant-baseline="middle" text-anchor="middle" 
            x="726" y="75" class="a15"><tspan x = "726" dy="1.0em">@chess/ts#build</tspan></text><g >

            <rect x="30" y="150" width="0" height="0" fill="#ffffffff" 
            stroke-width="2" stroke="#000000ff" rx="0"  />

            </g>
<text dominant-baseline="middle" text-anchor="middle" 
            x="30" y="135" class="a15"><tspan x = "30" dy="1.0em">@hieudoanm.github.io/extension#build</tspan></text><g >

            <rect x="90" y="150" width="0" height="0" fill="#ffffffff" 
            stroke-width="2" stroke="#000000ff" rx="0"  />

            </g>
<text dominant-baseline="middle" text-anchor="middle" 
            x="90" y="135" class="a15"><tspan x = "90" dy="1.0em">obsidian-flow#build</tspan></text><g >

            <rect x="150" y="150" width="0" height="0" fill="#ffffffff" 
            stroke-width="2" stroke="#000000ff" rx="0"  />

            </g>
<text dominant-baseline="middle" text-anchor="middle" 
            x="150" y="135" class="a15"><tspan x = "150" dy="1.0em">@simple-upload/server#build</tspan></text><g >

            <rect x="210" y="150" width="0" height="0" fill="#ffffffff" 
            stroke-width="2" stroke="#000000ff" rx="0"  />

            </g>
<text dominant-baseline="middle" text-anchor="middle" 
            x="210" y="135" class="a15"><tspan x = "210" dy="1.0em">@svg/themes#build</tspan></text><g >

            <rect x="270" y="150" width="0" height="0" fill="#ffffffff" 
            stroke-width="2" stroke="#000000ff" rx="0"  />

            </g>
<text dominant-baseline="middle" text-anchor="middle" 
            x="270" y="135" class="a15"><tspan x = "270" dy="1.0em">lodashx_rs#build</tspan></text><g >

            <rect x="330" y="150" width="0" height="0" fill="#ffffffff" 
            stroke-width="2" stroke="#000000ff" rx="0"  />

            </g>
<text dominant-baseline="middle" text-anchor="middle" 
            x="330" y="135" class="a15"><tspan x = "330" dy="1.0em">lodash_rs#build</tspan></text><g >

            <rect x="390" y="150" width="0" height="0" fill="#ffffffff" 
            stroke-width="2" stroke="#000000ff" rx="0"  />

            </g>
<text dominant-baseline="middle" text-anchor="middle" 
            x="390" y="135" class="a15"><tspan x = "390" dy="1.0em">chess_rs#build</tspan></text><g >

            <rect x="792" y="30" width="0" height="0" fill="#ffffffff" 
            stroke-width="2" stroke="#000000ff" rx="0"  />

            </g>
<text dominant-baseline="middle" text-anchor="middle" 
            x="792" y="15" class="a15"><tspan x = "792" dy="1.0em">@hieudoanm.github.io/next#build</tspan></text><g >

            <rect x="450" y="150" width="0" height="0" fill="#ffffffff" 
            stroke-width="2" stroke="#000000ff" rx="0"  />

            </g>
<text dominant-baseline="middle" text-anchor="middle" 
            x="450" y="135" class="a15"><tspan x = "450" dy="1.0em">@simple-upload/react#build</tspan></text><g >

            <rect x="510" y="150" width="0" height="0" fill="#ffffffff" 
            stroke-width="2" stroke="#000000ff" rx="0"  />

            </g>
<text dominant-baseline="middle" text-anchor="middle" 
            x="510" y="135" class="a15"><tspan x = "510" dy="1.0em">hieudoanm_api#build</tspan></text><g >

            <rect x="570" y="150" width="0" height="0" fill="#ffffffff" 
            stroke-width="2" stroke="#000000ff" rx="0"  />

            </g>
<text dominant-baseline="middle" text-anchor="middle" 
            x="570" y="135" class="a15"><tspan x = "570" dy="1.0em">@hieudoanm.github.io/docs#build</tspan></text><g >

            <rect x="630" y="150" width="0" height="0" fill="#ffffffff" 
            stroke-width="2" stroke="#000000ff" rx="0"  />

            </g>
<text dominant-baseline="middle" text-anchor="middle" 
            x="630" y="135" class="a15"><tspan x = "630" dy="1.0em">@simple-upload/solid#build</tspan></text><g >

            <rect x="300" y="90" width="0" height="0" fill="#ffffffff" 
            stroke-width="2" stroke="#000000ff" rx="0"  />

            </g>
<text dominant-baseline="middle" text-anchor="middle" 
            x="300" y="75" class="a15"><tspan x = "300" dy="1.0em">@simple/demo#build</tspan></text><g >

            <path id="arrow0" d="M 918 30 C 918 60, 918 60, 918 90 " stroke="#000000ff" stroke-width="2"   marker-end="url(#endarrow)" 
            fill="transparent" />

            </g>
<text><textPath href="#arrow0" startOffset="50%" text-anchor="middle" class="a15"></textPath></text><g >

            <path id="arrow1" d="M 918 30 C 896.7867965644036 51.21320343559643, 879.2132034355964 68.78679656440357, 858 90 " stroke="#000000ff" stroke-width="2"   marker-end="url(#endarrow)" 
            fill="transparent" />

            </g>
<text><textPath href="#arrow1" startOffset="50%" text-anchor="middle" class="a15"></textPath></text><g >

            <path id="arrow2" d="M 918 30 C 936.7408514266327 53.42606428329091, 962.5823142108616 70.49690174676431, 966 90 S 849.6923076923077 138.46153846153845, 822 150 " stroke="#000000ff" stroke-width="2"   marker-end="url(#endarrow)" 
            fill="transparent" />

            </g>
<text><textPath href="#arrow2" startOffset="50%" text-anchor="middle" class="a15"></textPath></text><g >

            <path id="arrow3" d="M 630.25 30 C 602.3268997550139 40.968157215706505, 505.42310024498613 79.0318427842935, 477.5 90 " stroke="#000000ff" stroke-width="2"   marker-end="url(#endarrow)" 
            fill="transparent" />

            </g>
<text><textPath href="#arrow3" startOffset="50%" text-anchor="middle" class="a15"></textPath></text><g >

            <path id="arrow4" d="M 630.25 30 C 645.605841496227 55.772041671989314, 650.644158503773 64.22795832801069, 666 90 " stroke="#000000ff" stroke-width="2"   marker-end="url(#endarrow)" 
            fill="transparent" />

            </g>
<text><textPath href="#arrow4" startOffset="50%" text-anchor="middle" class="a15"></textPath></text><g >

            <path id="arrow5" d="M 630.25 30 C 603.567383380216 43.71269376605598, 523.6455349501837 78.63991703753624, 513.5 90 S 792.5517867364786 144.27263275263763, 822 150 " stroke="#000000ff" stroke-width="2"   marker-end="url(#endarrow)" 
            fill="transparent" />

            </g>
<text><textPath href="#arrow5" startOffset="50%" text-anchor="middle" class="a15"></textPath></text><g >

            <path id="arrow6" d="M 630.25 30 C 658.2445735314993 40.7844264005776, 758.0054264685007 79.2155735994224, 786 90 " stroke="#000000ff" stroke-width="2"   marker-end="url(#endarrow)" 
            fill="transparent" />

            </g>
<text><textPath href="#arrow6" startOffset="50%" text-anchor="middle" class="a15"></textPath></text><g >

            <path id="arrow7" d="M 630.25 30 C 655.6712872149043 45.92978833309927, 700.5787127850957 74.07021166690073, 726 90 " stroke="#000000ff" stroke-width="2"   marker-end="url(#endarrow)" 
            fill="transparent" />

            </g>
<text><textPath href="#arrow7" startOffset="50%" text-anchor="middle" class="a15"></textPath></text><g >

            <path id="arrow8" d="M 630.25 30 C 659.2601726035443 37.64263603166919, 828.9898273964557 82.35736396833082, 858 90 " stroke="#000000ff" stroke-width="2"   marker-end="url(#endarrow)" 
            fill="transparent" />

            </g>
<text><textPath href="#arrow8" startOffset="50%" text-anchor="middle" class="a15"></textPath></text><g >

            <path id="arrow9" d="M 30 150 C 59.698484809834994 154.2426406871193, 420.301515190165 205.7573593128807, 450 210 " stroke="#000000ff" stroke-width="2"   marker-end="url(#endarrow)" 
            fill="transparent" />

            </g>
<text><textPath href="#arrow9" startOffset="50%" text-anchor="middle" class="a15"></textPath></text><g >

            <path id="arrow10" d="M 666 90 C 666 120, 666 120, 666 150 S 478.90553728889824 201.97068408641715, 450 210 " stroke="#000000ff" stroke-width="2"   marker-end="url(#endarrow)" 
            fill="transparent" />

            </g>
<text><textPath href="#arrow10" startOffset="50%" text-anchor="middle" class="a15"></textPath></text><g >

            <path id="arrow11" d="M 90 150 C 119.59181771496432 154.93196961916072, 420.4081822850357 205.06803038083928, 450 210 " stroke="#000000ff" stroke-width="2"   marker-end="url(#endarrow)" 
            fill="transparent" />

            </g>
<text><textPath href="#arrow11" startOffset="50%" text-anchor="middle" class="a15"></textPath></text><g >

            <path id="arrow12" d="M 150 150 C 179.4174202707276 155.88348405414553, 420.58257972927237 204.11651594585447, 450 210 " stroke="#000000ff" stroke-width="2"   marker-end="url(#endarrow)" 
            fill="transparent" />

            </g>
<text><textPath href="#arrow12" startOffset="50%" text-anchor="middle" class="a15"></textPath></text><g >

            <path id="arrow13" d="M 822 150 C 792.3827663786205 154.77697316473862, 479.6172336213794 205.22302683526138, 450 210 " stroke="#000000ff" stroke-width="2"   marker-end="url(#endarrow)" 
            fill="transparent" />

            </g>
<text><textPath href="#arrow13" startOffset="50%" text-anchor="middle" class="a15"></textPath></text><g >

            <path id="arrow14" d="M 210 150 C 239.10427500435995 157.27606875108998, 420.89572499564 202.72393124891002, 450 210 " stroke="#000000ff" stroke-width="2"   marker-end="url(#endarrow)" 
            fill="transparent" />

            </g>
<text><textPath href="#arrow14" startOffset="50%" text-anchor="middle" class="a15"></textPath></text><g >

            <path id="arrow15" d="M 858 90 C 858 120, 858 120, 858 150 S 479.6807740609456 205.63518028515506, 450 210 " stroke="#000000ff" stroke-width="2"   marker-end="url(#endarrow)" 
            fill="transparent" />

            </g>
<text><textPath href="#arrow15" startOffset="50%" text-anchor="middle" class="a15"></textPath></text><g >

            <path id="arrow16" d="M 786 90 C 786 120, 786 120, 786 150 S 479.53282726525447 204.72628084549027, 450 210 " stroke="#000000ff" stroke-width="2"   marker-end="url(#endarrow)" 
            fill="transparent" />

            </g>
<text><textPath href="#arrow16" startOffset="50%" text-anchor="middle" class="a15"></textPath></text><g >

            <path id="arrow17" d="M 477.5 90 C 507.0550924361901 95.14747618627403, 792.4449075638099 144.85252381372595, 822 150 " stroke="#000000ff" stroke-width="2"   marker-end="url(#endarrow)" 
            fill="transparent" />

            </g>
<text><textPath href="#arrow17" startOffset="50%" text-anchor="middle" class="a15"></textPath></text><g >

            <path id="arrow18" d="M 270 150 C 298.4604989415154 159.48683298050514, 421.5395010584846 200.51316701949486, 450 210 " stroke="#000000ff" stroke-width="2"   marker-end="url(#endarrow)" 
            fill="transparent" />

            </g>
<text><textPath href="#arrow18" startOffset="50%" text-anchor="middle" class="a15"></textPath></text><g >

            <path id="arrow19" d="M 918 90 C 892.5600508798474 105.8999682000954, 847.4399491201526 134.1000317999046, 822 150 " stroke="#000000ff" stroke-width="2"   marker-end="url(#endarrow)" 
            fill="transparent" />

            </g>
<text><textPath href="#arrow19" startOffset="50%" text-anchor="middle" class="a15"></textPath></text><g >

            <path id="arrow20" d="M 726 90 C 726 120, 726 120, 726 150 S 479.315290917684 203.6271106700687, 450 210 " stroke="#000000ff" stroke-width="2"   marker-end="url(#endarrow)" 
            fill="transparent" />

            </g>
<text><textPath href="#arrow20" startOffset="50%" text-anchor="middle" class="a15"></textPath></text><g >

            <path id="arrow21" d="M 330 150 C 356.8328157299975 163.41640786499875, 423.1671842700025 196.58359213500125, 450 210 " stroke="#000000ff" stroke-width="2"   marker-end="url(#endarrow)" 
            fill="transparent" />

            </g>
<text><textPath href="#arrow21" startOffset="50%" text-anchor="middle" class="a15"></textPath></text><g >

            <path id="arrow22" d="M 390 150 C 411.2132034355964 171.21320343559643, 428.7867965644036 188.78679656440357, 450 210 " stroke="#000000ff" stroke-width="2"   marker-end="url(#endarrow)" 
            fill="transparent" />

            </g>
<text><textPath href="#arrow22" startOffset="50%" text-anchor="middle" class="a15"></textPath></text><g >

            <path id="arrow23" d="M 792 30 C 769.8017977981217 50.18018381988938, 748.1982022018783 69.81981618011062, 726 90 " stroke="#000000ff" stroke-width="2"   marker-end="url(#endarrow)" 
            fill="transparent" />

            </g>
<text><textPath href="#arrow23" startOffset="50%" text-anchor="middle" class="a15"></textPath></text><g >

            <path id="arrow24" d="M 792 30 C 805.4164078649987 56.83281572999748, 822 60, 822 90 S 822 120, 822 150 " stroke="#000000ff" stroke-width="2"   marker-end="url(#endarrow)" 
            fill="transparent" />

            </g>
<text><textPath href="#arrow24" startOffset="50%" text-anchor="middle" class="a15"></textPath></text><g >

            <path id="arrow25" d="M 792 30 C 789.01488842937 59.85111570629967, 788.98511157063 60.14888429370033, 786 90 " stroke="#000000ff" stroke-width="2"   marker-end="url(#endarrow)" 
            fill="transparent" />

            </g>
<text><textPath href="#arrow25" startOffset="50%" text-anchor="middle" class="a15"></textPath></text><g >

            <path id="arrow26" d="M 792 30 C 764.9141844352821 42.898007411770436, 693.0858155647179 77.10199258822956, 666 90 " stroke="#000000ff" stroke-width="2"   marker-end="url(#endarrow)" 
            fill="transparent" />

            </g>
<text><textPath href="#arrow26" startOffset="50%" text-anchor="middle" class="a15"></textPath></text><g >

            <path id="arrow27" d="M 792 30 C 819.0858155647179 42.898007411770436, 890.9141844352821 77.10199258822956, 918 90 " stroke="#000000ff" stroke-width="2"   marker-end="url(#endarrow)" 
            fill="transparent" />

            </g>
<text><textPath href="#arrow27" startOffset="50%" text-anchor="middle" class="a15"></textPath></text><g >

            <path id="arrow28" d="M 792 30 C 814.1982022018783 50.18018381988938, 835.8017977981217 69.81981618011062, 858 90 " stroke="#000000ff" stroke-width="2"   marker-end="url(#endarrow)" 
            fill="transparent" />

            </g>
<text><textPath href="#arrow28" startOffset="50%" text-anchor="middle" class="a15"></textPath></text><g >

            <path id="arrow29" d="M 450 150 C 450 180, 450 180, 450 210 " stroke="#000000ff" stroke-width="2"   marker-end="url(#endarrow)" 
            fill="transparent" />

            </g>
<text><textPath href="#arrow29" startOffset="50%" text-anchor="middle" class="a15"></textPath></text><g >

            <path id="arrow30" d="M 510 150 C 488.7867965644036 171.21320343559643, 471.2132034355964 188.78679656440357, 450 210 " stroke="#000000ff" stroke-width="2"   marker-end="url(#endarrow)" 
            fill="transparent" />

            </g>
<text><textPath href="#arrow30" startOffset="50%" text-anchor="middle" class="a15"></textPath></text><g >

            <path id="arrow31" d="M 570 150 C 543.1671842700025 163.41640786499875, 476.8328157299975 196.58359213500125, 450 210 " stroke="#000000ff" stroke-width="2"   marker-end="url(#endarrow)" 
            fill="transparent" />

            </g>
<text><textPath href="#arrow31" startOffset="50%" text-anchor="middle" class="a15"></textPath></text><g >

            <path id="arrow32" d="M 630 150 C 601.5395010584846 159.48683298050514, 478.4604989415154 200.51316701949486, 450 210 " stroke="#000000ff" stroke-width="2"   marker-end="url(#endarrow)" 
            fill="transparent" />

            </g>
<text><textPath href="#arrow32" startOffset="50%" text-anchor="middle" class="a15"></textPath></text><g >

            <path id="arrow33" d="M 300 90 C 272.14569927344223 101.14172029062311, 177.85430072655777 138.8582797093769, 150 150 " stroke="#000000ff" stroke-width="2"   marker-end="url(#endarrow)" 
            fill="transparent" />

            </g>
<text><textPath href="#arrow33" startOffset="50%" text-anchor="middle" class="a15"></textPath></text><g >

            <path id="arrow34" d="M 300 90 C 327.85430072655777 101.14172029062311, 422.14569927344223 138.8582797093769, 450 150 " stroke="#000000ff" stroke-width="2"   marker-end="url(#endarrow)" 
            fill="transparent" />

            </g>
<text><textPath href="#arrow34" startOffset="50%" text-anchor="middle" class="a15"></textPath></text></svg>